<svg width="76" height="76" viewBox="0 0 76 76" fill="none" xmlns="http://www.w3.org/2000/svg">
    <g clip-path="url(#clip0_1521_5721)">
        <path
            d="M38 76C58.9868 76 76 58.9868 76 38C76 17.0132 58.9868 0 38 0C17.0132 0 0 17.0132 0 38C0 58.9868 17.0132 76 38 76Z"
            fill="#00F58C" />
        <path
            d="M48.5469 19.4543L30.5037 37.4983C30.0562 37.9458 29.4482 38.1979 28.8153 38.1979C27.892 38.1979 27.0517 37.6659 26.6568 36.8314L19.6662 22.0518C19.0951 20.8451 19.9759 19.4551 21.3105 19.4551H48.5476L48.5469 19.4543Z"
            fill="black" />
        <path
            d="M19.4546 60.6706V43.1146C19.4546 42.1785 20.2139 41.4192 21.15 41.4192H38.706L19.4546 60.6706Z"
            fill="black" />
        <path
            d="M40.1548 38.198H34.3433L51.8325 20.7087C52.6351 19.9061 53.724 19.4551 54.859 19.4551H60.6705L43.1813 36.9443C42.3787 37.7469 41.2898 38.198 40.1548 38.198Z"
            fill="black" />
    </g>
    <defs>
        <clipPath id="clip0_1521_5721">
            <rect width="76" height="76" fill="white" />
        </clipPath>
    </defs>
</svg>