<svg width="29" height="29" viewBox="0 0 29 29" fill="none" xmlns="http://www.w3.org/2000/svg">
    <path
        d="M1.92777 0C0.863318 0 0 0.863318 0 1.92777V29H23.9945C24.8064 29 25.5855 28.6773 26.1595 28.1033L28.1033 26.1595C28.6773 25.5855 29 24.8064 29 23.9945V0H1.92777ZM4.69813 3.72857H18.9342L9.50318 13.1596C9.26931 13.3935 8.95191 13.5251 8.62048 13.5251C8.13804 13.5251 7.69836 13.2471 7.49189 12.8108L3.83816 5.08569C3.54014 4.45491 4.00053 3.72857 4.69813 3.72857ZM3.72857 25.2714V16.095C3.72857 15.6059 4.12548 15.209 4.61461 15.209H13.791L3.72857 25.2714ZM16.1297 12.8703C15.7101 13.2899 15.1415 13.5258 14.5481 13.5258H11.5105L20.6515 4.38408C21.0711 3.96445 21.6397 3.72857 22.2331 3.72857H25.2708L16.1297 12.8703Z"
        fill="#00F58C" />
</svg>