<svg width="34" height="47" viewBox="0 0 34 47" fill="none" xmlns="http://www.w3.org/2000/svg">
<path d="M21.5617 19.3559L16.805 15.5009L21.5617 11.6463L26.3184 15.5009L21.5617 19.3559ZM21.5617 23.0731V31L7.31836 19.4623L12.2127 15.4996L21.5617 23.0731ZM7.31836 11.5378V19.4623L12.2127 15.4996L21.5614 7.92743V0L7.31836 11.5378Z" fill="#1A1E3E"/>
<path d="M8.73785 34.6088C8.37844 34.5992 8.02048 34.6503 7.68616 34.7589C7.35184 34.8676 7.04832 35.0314 6.79445 35.2403C6.54057 35.4492 6.34178 35.6986 6.2104 35.9732C6.07902 36.2477 6.01782 36.5415 6.03069 36.8362C6.01895 37.1319 6.08191 37.4264 6.21565 37.7012C6.34938 37.976 6.551 38.2252 6.8078 38.433C7.06459 38.6408 7.37103 38.8027 7.70783 38.9087C8.04464 39.0147 8.40449 39.0623 8.76485 39.0487C9.87789 39.0487 10.9154 38.6078 11.3021 37.6019H9.90618C9.7994 37.7737 9.63343 37.9159 9.42886 38.0108C9.22428 38.1058 8.99019 38.1493 8.7557 38.1359C8.58504 38.1428 8.41441 38.1217 8.25378 38.074C8.09316 38.0262 7.94574 37.9526 7.82019 37.8575C7.69464 37.7625 7.59347 37.6478 7.52258 37.5203C7.45169 37.3928 7.41248 37.255 7.4073 37.1149H11.3873C11.5197 35.715 10.4543 34.6088 8.73785 34.6088ZM7.47367 36.303C7.54301 36.0751 7.7052 35.8734 7.93337 35.7314C8.16154 35.5893 8.44198 35.5154 8.72833 35.522C9.01203 35.5132 9.29045 35.5868 9.51466 35.7296C9.73887 35.8724 9.89453 36.0754 9.9544 36.303H7.47367Z" fill="#1A1E3E"/>
<path d="M14.4509 38.0285C13.6583 38.0285 13.1111 37.5413 13.1203 36.8292C13.1111 36.1252 13.6395 35.6306 14.4601 35.6306C14.7256 35.6162 14.989 35.6766 15.2069 35.8018C15.4248 35.927 15.584 36.1094 15.6582 36.319H17.0449C16.8468 35.2355 15.724 34.6096 14.461 34.6096C14.1029 34.6018 13.7466 34.6538 13.4139 34.7626C13.0811 34.8713 12.7789 35.0345 12.5256 35.2423C12.2723 35.45 12.0732 35.6978 11.9405 35.9707C11.8078 36.2436 11.7443 36.5358 11.7539 36.8295C11.744 37.1226 11.8071 37.4143 11.939 37.6868C12.071 37.9593 12.2692 38.2069 12.5215 38.4146C12.7739 38.6223 13.0751 38.7857 13.4069 38.8949C13.7387 39.0041 14.0941 39.0569 14.4515 39.0498C15.6963 39.0498 16.8373 38.4539 17.0446 37.3326H15.6579C15.5831 37.5439 15.4228 37.7279 15.2034 37.8544C14.984 37.9809 14.7186 38.0423 14.4509 38.0285Z" fill="#1A1E3E"/>
<path d="M22.8551 38.9562H21.1288L19.4257 37.3123H21.1648L22.8551 38.9562Z" fill="#1A1E3E"/>
<path d="M22.4952 34.7018L20.1278 36.7284L18.8074 37.8091V38.9563H17.4581V33H18.8074V36.4734L20.7787 34.7018H22.4952Z" fill="#1A1E3E"/>
<path d="M24.8999 34.6092C24.5434 34.6048 24.1896 34.6593 23.8593 34.7694C23.529 34.8795 23.2291 35.043 22.9775 35.2501C22.7259 35.4573 22.5277 35.7037 22.3946 35.975C22.2615 36.2462 22.1963 36.5367 22.2029 36.8291C22.1954 37.1216 22.2599 37.4124 22.3927 37.684C22.5254 37.9556 22.7237 38.2025 22.9755 38.4098C23.2273 38.6171 23.5275 38.7806 23.8582 38.8905C24.1888 39.0004 24.5432 39.0545 24.8999 39.0494C25.2576 39.056 25.6132 39.003 25.9452 38.8937C26.2773 38.7844 26.5789 38.6211 26.8319 38.4136C27.0849 38.2062 27.284 37.9587 27.4172 37.6864C27.5505 37.4141 27.615 37.1224 27.6071 36.8291C27.6134 36.5361 27.5477 36.245 27.4139 35.9733C27.2801 35.7015 27.081 35.4547 26.8283 35.2476C26.5756 35.0404 26.2747 34.877 25.9433 34.7674C25.612 34.6577 25.2571 34.6039 24.8999 34.6092ZM24.8999 37.9974C24.7163 37.9986 24.5344 37.9685 24.3656 37.9093C24.1968 37.85 24.0447 37.7628 23.919 37.6531C23.7933 37.5433 23.6966 37.4135 23.6349 37.2716C23.5732 37.1298 23.548 36.979 23.5607 36.8288C23.5487 36.6788 23.5746 36.5282 23.6365 36.3867C23.6985 36.2452 23.7952 36.1156 23.9208 36.006C24.0464 35.8965 24.1981 35.8093 24.3666 35.7499C24.535 35.6905 24.7166 35.6601 24.8999 35.6606C25.0833 35.6601 25.2648 35.6905 25.4332 35.7499C25.6017 35.8093 25.7535 35.8965 25.8791 36.006C26.0048 36.1156 26.1016 36.2452 26.1636 36.3867C26.2256 36.5282 26.2515 36.6787 26.2396 36.8288C26.2523 36.9791 26.227 37.1298 26.1653 37.2717C26.1035 37.4135 26.0067 37.5433 25.8809 37.6531C25.7551 37.7628 25.603 37.85 25.4342 37.9093C25.2654 37.9685 25.0835 37.9986 24.8999 37.9974Z" fill="#1A1E3E"/>
<path d="M7.42778 41.0518H9.05603L7.47324 46.3872H5.51595L4.94488 44.4589L4.60692 42.5761L4.44784 42.5686L4.12 44.4584L3.54862 46.3867H1.58242L0 41.0512H1.63867L2.38765 43.6047L2.58423 44.8472L2.78119 43.6047L3.53017 41.0512H5.52488L6.27416 43.6047L6.48034 44.8776L6.67693 43.6047L7.42778 41.0518ZM16.5102 45.1523H19.1697V46.3869H14.9182V41.0518H16.5102V45.1523ZM21.0763 45.1523H23.7359V46.3869H19.4843V41.0518H21.0763V45.1523ZM33.6367 41.0518V42.2864H31.8481V46.3869H30.2537V42.2864H28.4743V41.0518H33.6367ZM12.8486 46.4134L12.4836 45.5149H10.1257L9.76106 46.4134H8.05819L10.3411 41.0518H12.2875L14.561 46.4134H12.8486ZM10.5282 44.5236H12.0814L11.3048 42.6195L10.5282 44.5236ZM28.1022 42.2985H25.7106V43.0912H27.8208V44.3258H25.7106V45.1641H28.1022V46.3988H24.1186V41.0633H28.1022V42.2985Z" fill="#1A1E3E"/>
</svg>
