<svg width="27" height="27" viewBox="0 0 27 27" fill="none" xmlns="http://www.w3.org/2000/svg">
<path d="M0 13.5C0 6.04416 6.04416 0 13.5 0C20.9558 0 27 6.04416 27 13.5C27 20.9558 20.9558 27 13.5 27C6.04416 27 0 20.9558 0 13.5Z" fill="#13172F"/>
<path d="M13.5 0.5C20.6797 0.5 26.5 6.3203 26.5 13.5C26.5 20.6797 20.6797 26.5 13.5 26.5C6.3203 26.5 0.5 20.6797 0.5 13.5C0.5 6.3203 6.3203 0.5 13.5 0.5Z" stroke="white" stroke-opacity="0.5"/>
<path d="M15.9958 16.4877L15.0588 15.7118L12.9916 14.0006L15.0588 12.2889L15.9958 11.5138L16.933 12.2889L19 14.0006L16.933 15.7118L15.9958 16.4877ZM15.9958 18.8859V24L7 16.5563L10.0912 13.9997L15.9958 18.8859ZM7 11.4438V16.5559L10.0912 13.9994L15.9956 9.11447V4L7 11.4438Z" fill="url(#paint0_linear_1136_133)"/>
<defs>
<linearGradient id="paint0_linear_1136_133" x1="6.664" y1="3.44" x2="22.3169" y2="12.8318" gradientUnits="userSpaceOnUse">
<stop stop-color="#FFD300"/>
<stop offset="1" stop-color="#FF00B8"/>
</linearGradient>
</defs>
</svg>