<svg width="702" height="210" viewBox="0 0 702 210" fill="none" xmlns="http://www.w3.org/2000/svg">
    <path
        d="M346.208 158.821C341.658 144.921 337.088 130.891 332.528 116.681C332.308 116.111 331.208 116.251 331.208 116.951C331.188 131.311 331.168 145.68 331.148 160.04C331.148 160.86 330.928 161.521 330.488 162.021C330.048 162.531 329.438 162.831 328.668 162.921C320.598 163.831 312.518 164.811 304.458 165.861C303.688 165.961 303.078 165.801 302.648 165.381C302.208 164.971 301.988 164.331 301.988 163.501C302.008 123.561 302.038 83.6405 302.048 43.7005C302.048 42.8705 302.268 42.2105 302.708 41.7405C303.148 41.2605 303.758 41.0205 304.528 41.0205H341.728C348.338 41.0205 354.208 42.6605 359.328 45.8605C364.448 49.0705 368.438 53.4705 371.288 59.1105C374.148 64.7305 375.568 71.1605 375.548 78.4305C375.548 84.5805 374.478 90.1105 372.378 95.0605C370.278 100.011 365.728 104.791 361.428 107.441C360.988 107.801 360.818 108.271 360.928 108.821C365.978 124.541 371.018 140.09 376.078 155.51C376.188 155.73 376.248 156.01 376.248 156.34C376.248 157.68 375.478 158.41 373.938 158.54C365.568 159.23 357.198 159.981 348.848 160.811C347.418 160.951 346.528 160.301 346.208 158.851V158.821ZM332.258 68.9705C331.598 68.9905 331.268 69.3505 331.268 70.0405C331.268 76.7005 331.248 83.3605 331.238 90.0205C331.238 90.7205 331.568 91.0505 332.228 91.0205C333.558 90.9605 334.878 90.9005 336.218 90.8505C338.638 90.7505 340.628 89.7005 342.168 87.7505C343.708 85.7905 344.488 83.1105 344.488 79.6805C344.488 76.2505 343.758 73.4305 342.268 71.5805C340.778 69.7205 338.768 68.8305 336.248 68.8905C334.918 68.9305 333.598 68.9505 332.258 68.9905V68.9705Z"
        fill="white" style="fill:white;fill-opacity:1;" />
    <path
        d="M513.579 151.49C512.969 147.46 512.359 143.43 511.749 139.39C511.749 139.18 511.639 138.96 511.419 138.74C511.199 138.53 510.919 138.41 510.589 138.41C503.279 138.34 495.959 138.32 488.649 138.34C488.319 138.34 488.039 138.45 487.819 138.66C487.599 138.88 487.489 139.09 487.489 139.3C486.939 143.32 486.389 147.35 485.829 151.37C485.719 152.88 484.839 153.63 483.169 153.64C474.499 153.71 465.819 153.84 457.149 154.06C455.389 154.11 454.659 153.26 454.999 151.53C462.869 115.18 470.729 79.1 478.569 43.09C478.899 41.69 479.839 41 481.379 41H518.819C520.359 41 521.299 41.7 521.629 43.09C529.469 79.15 537.349 115.36 545.229 151.88V152.53C545.229 153.82 544.459 154.45 542.909 154.39C534.019 154.1 525.129 153.88 516.229 153.75C514.569 153.72 513.689 152.96 513.569 151.45V151.48H513.579V151.49ZM491.969 115.17C497.019 115.17 502.059 115.17 507.119 115.21C507.889 115.21 508.169 114.9 507.949 114.25C505.229 103.22 502.509 92.21 499.789 81.19C499.679 80.76 499.509 80.55 499.289 80.55C499.069 80.55 498.899 80.76 498.789 81.19C496.249 92.19 493.689 103.2 491.139 114.2C491.139 114.84 491.419 115.16 491.969 115.16V115.17Z"
        fill="white" style="fill:white;fill-opacity:1;" />
    <path
        d="M553.188 154.141C552.748 153.691 552.528 153.091 552.528 152.331C552.478 116.041 552.448 79.7505 552.398 43.4605C552.398 42.7105 552.618 42.1105 553.058 41.6705C553.498 41.2405 554.108 41.0205 554.878 41.0205H587.448C594.728 41.0205 601.148 42.4005 606.718 45.1905C612.288 47.9905 616.618 51.9605 619.718 57.1105C622.808 62.2605 624.368 68.1905 624.378 74.8405C624.408 91.7505 624.428 108.661 624.458 125.571C624.468 132.221 622.938 138.011 619.858 142.891C616.778 147.781 612.468 151.39 606.898 153.76C601.328 156.13 594.908 157.05 587.628 156.59C576.758 155.9 565.888 155.331 555.008 154.881C554.238 154.841 553.628 154.61 553.188 154.15V154.141ZM582.718 129.76C584.708 129.8 586.708 129.841 588.698 129.881C590.458 129.861 591.948 129.111 593.158 127.621C594.368 126.141 595.018 124.181 595.128 121.751C595.098 106.551 595.078 91.3605 595.058 76.1605C595.058 73.6205 594.448 71.5705 593.228 70.0005C592.018 68.4405 590.408 67.6305 588.428 67.6105C586.488 67.5805 584.548 67.5605 582.618 67.5305C581.958 67.5305 581.628 67.8505 581.628 68.5005C581.658 88.5805 581.688 108.661 581.718 128.741C581.718 129.401 582.048 129.741 582.708 129.781V129.76H582.718Z"
        fill="white" style="fill:white;fill-opacity:1;" />
    <path
        d="M647.958 160.62C647.518 160.11 647.298 159.45 647.298 158.65C647.278 145.44 647.258 132.241 647.248 119.041C647.248 118.351 647.198 117.891 647.088 117.651C639.348 92.5805 631.588 68.0205 623.828 43.8905C623.718 43.6605 623.668 43.3205 623.668 42.8805C623.668 41.6405 624.388 41.0205 625.818 41.0205H653.268C654.808 41.0205 655.748 41.7705 656.078 43.2805C658.138 54.6905 660.178 66.1505 662.228 77.6905C662.338 78.1605 662.558 78.4005 662.888 78.4205C663.218 78.4205 663.438 78.2105 663.548 77.7405C665.568 66.3305 667.598 54.8605 669.628 43.3105C669.958 41.7905 670.898 41.0205 672.438 41.0205H699.888C700.768 41.0205 701.378 41.2905 701.708 41.8405C702.038 42.3805 702.098 43.1505 701.878 44.1105C694.048 70.0205 686.258 95.2605 678.468 119.941C678.358 120.171 678.308 120.63 678.308 121.34C678.308 134.931 678.328 148.53 678.348 162.12C678.348 162.95 678.128 163.571 677.688 163.991C677.248 164.401 676.638 164.57 675.878 164.48C667.198 163.41 658.508 162.411 649.818 161.491C649.048 161.411 648.438 161.111 647.998 160.611H647.958V160.62Z"
        fill="white" style="fill:white;fill-opacity:1;" />
    <path
        d="M446.92 66.4402C446.48 66.8702 445.87 67.0902 445.1 67.1002C434.75 67.1802 424.41 67.2802 414.06 67.4102C413.4 67.4102 413.07 67.7502 413.07 68.4002C413.07 73.6502 413.05 78.9002 413.04 84.1502C413.04 84.8102 413.37 85.1302 414.03 85.1102C421.14 84.9602 428.26 84.8302 435.37 84.7202C436.14 84.7202 436.75 84.9202 437.19 85.3402C437.63 85.7702 437.85 86.3602 437.85 87.1102C437.85 94.2002 437.83 101.29 437.82 108.38C437.82 109.13 437.6 109.74 437.16 110.18C436.72 110.63 436.1 110.86 435.34 110.87C428.22 111.04 421.1 111.26 413.99 111.49C413.33 111.52 413 111.85 413 112.51C413 117.81 412.98 123.12 412.97 128.42C412.97 129.08 413.3 129.38 413.96 129.37C424.31 128.94 434.67 128.59 445.03 128.32C445.8 128.3 446.41 128.5 446.85 128.93C447.29 129.35 447.51 129.94 447.51 130.69C447.51 137.76 447.51 144.82 447.49 151.9C447.49 152.65 447.27 153.26 446.83 153.7C446.39 154.15 445.77 154.38 445.01 154.41C425.37 155.06 405.74 156.11 386.14 157.55C385.37 157.61 384.76 157.43 384.32 157.02C383.88 156.61 383.66 156.02 383.66 155.24C383.73 118 383.79 80.7502 383.85 43.5002C383.85 42.7302 384.07 42.1102 384.51 41.6602C384.95 41.2102 385.56 41.0002 386.33 40.9902H445.11C445.88 40.9902 446.49 41.2102 446.93 41.6402C447.37 42.0702 447.59 42.6702 447.59 43.4202C447.59 50.4902 447.59 57.5602 447.57 64.6302C447.57 65.3802 447.35 65.9802 446.91 66.4102H446.89L446.92 66.4402Z"
        fill="white" style="fill:white;fill-opacity:1;" />
    <path
        d="M228.521 153.9C178.471 115.37 149.431 60.99 148.231 3.67C148.191 1.63 146.601 0 144.621 0H85.421C83.441 0 81.851 1.63 81.811 3.67C80.611 60.97 51.521 115.37 1.47101 153.9C-0.118991 155.12 -0.478991 157.42 0.681009 159.07L35.311 208.44C36.491 210.12 38.791 210.5 40.401 209.26C71.701 185.32 96.871 156.47 115.001 124.46C133.131 156.47 158.311 185.32 189.601 209.26C191.211 210.5 193.511 210.12 194.691 208.44L229.321 159.07C230.481 157.42 230.111 155.12 228.521 153.9Z"
        fill="#FF875B"
        style="fill:#FF875B;fill:color(display-p3 1.0000 0.5294 0.3569);fill-opacity:1;" />
</svg>