<svg width="36" height="36" viewBox="0 0 36 36" fill="none" xmlns="http://www.w3.org/2000/svg">
<circle cx="18" cy="18" r="18" fill="white"/>
<g transform="translate(6, 8.35) scale(0.4286)">
<path d="M49.0545 7.01834H25.7892C22.0697 7.01834 18.1009 9.95547 16.9247 13.5786L8.88732 38.3366C7.71112 41.9598 9.77286 44.8969 13.4923 44.8969H36.7577C40.4772 44.8969 44.4459 41.9598 45.6221 38.3366L53.6595 13.5786C54.8357 9.95547 52.774 7.01834 49.0545 7.01834Z" fill="#0558EE"/>
<path d="M42.297 0H19.0317C15.3122 0 11.3435 2.93713 10.1673 6.56026L2.12986 31.3183C0.953651 34.9414 3.01539 37.8785 6.73488 37.8785H30.0002C33.7197 37.8785 37.6884 34.9414 38.8646 31.3183L46.902 6.56026C48.0782 2.93713 46.0165 0 42.297 0Z" fill="#21E8E6" fill-opacity="0.74"/>
</g>
</svg>
