<svg xmlns="http://www.w3.org/2000/svg" width="80" height="80" viewBox="0 0 80 80" fill="none">
  <path d="M0 40C0 17.9086 17.9086 0 40 0C62.0914 0 80 17.9086 80 40C80 62.0914 62.0914 80 40 80C17.9086 80 0 62.0914 0 40Z" fill="white"/>
  <g opacity="0.97">
    <path fill-rule="evenodd" clip-rule="evenodd" d="M20.9478 16.9734C20.6243 16.941 20.3002 16.9169 19.9752 16.9014C20.7771 16.1155 21.5814 15.3292 22.3886 14.5421C22.456 14.486 22.528 14.486 22.6048 14.5421C22.5705 14.5594 22.5345 14.5656 22.4967 14.5602C22.5187 14.7446 22.4765 14.9128 22.3706 15.0644C21.8746 15.6861 21.4006 16.3226 20.9478 16.9734Z" fill="#00A7FD"/>
    <path fill-rule="evenodd" clip-rule="evenodd" d="M59.3461 15.3886H58.9138C58.7427 15.2229 58.6224 15.0248 58.5536 14.7943C58.5655 14.7644 58.5777 14.7341 58.5896 14.7042C58.854 14.9207 59.1062 15.1491 59.3461 15.3886Z" fill="#00A1FD"/>
    <path fill-rule="evenodd" clip-rule="evenodd" d="M52.2139 14.9203H52.1779C52.1732 14.8886 52.1851 14.8649 52.2139 14.8483C52.2597 14.8757 52.2597 14.8995 52.2139 14.9203Z" fill="#00A1FD"/>
    <path fill-rule="evenodd" clip-rule="evenodd" d="M26.0268 17.3336C25.7415 17.2962 25.4533 17.272 25.1623 17.2616C26.2079 16.4083 27.3005 15.6159 28.4402 14.8843C28.5284 14.9178 28.5583 14.9776 28.5302 15.0644C27.6787 15.8017 26.8444 16.5581 26.0268 17.3336Z" fill="#00A6FD"/>
    <path fill-rule="evenodd" clip-rule="evenodd" d="M52.1779 14.9203H52.2139C52.3778 14.9369 52.5342 14.9909 52.6822 15.0824C53.9253 15.9292 55.1381 16.8175 56.3203 17.7479C56.9428 18.2575 57.4589 18.8519 57.8692 19.5308C57.4244 19.4998 56.9799 19.4638 56.5364 19.4228C56.1107 18.7985 55.6366 18.2103 55.1136 17.6578C54.2102 16.6939 53.2315 15.8233 52.1779 15.0464C52.1314 14.9999 52.1315 14.9578 52.1779 14.9203Z" fill="#00A6FD"/>
    <path fill-rule="evenodd" clip-rule="evenodd" d="M58.9138 15.3886H59.3461C60.7268 16.6431 62.0415 17.9636 63.2904 19.3507C63.4362 19.5384 63.5746 19.7304 63.7046 19.927C63.1164 19.8892 62.5282 19.8532 61.9396 19.819C61.6773 19.3947 61.4072 18.9743 61.1291 18.5583C60.381 17.5058 59.6425 16.4494 58.9138 15.3886Z" fill="#00A6FD"/>
    <path fill-rule="evenodd" clip-rule="evenodd" d="M19.9752 16.9014C20.3002 16.9169 20.6243 16.941 20.9478 16.9734C19.9608 18.2626 19.0722 19.6191 18.2823 21.0436C17.7066 20.995 17.1303 20.959 16.5533 20.9356C17.4801 19.4195 18.6205 18.0749 19.9752 16.9014Z" fill="#00ABFC"/>
    <path fill-rule="evenodd" clip-rule="evenodd" d="M25.1623 17.2616C25.4533 17.272 25.7415 17.2962 26.0268 17.3336C25.3838 18.0065 24.8013 18.7269 24.2797 19.4948C23.8994 20.0877 23.617 20.7241 23.4332 21.4038C23.0107 21.3728 22.5907 21.3368 22.1725 21.2958C22.5172 20.096 23.1415 19.0694 24.0456 18.2161C24.4134 17.8905 24.7855 17.5721 25.1623 17.2616Z" fill="#00ABFC"/>
    <path fill-rule="evenodd" clip-rule="evenodd" d="M31.7901 17.7299C31.7422 17.718 31.6939 17.7057 31.646 17.6938C31.8891 17.1571 31.9371 17.169 31.7901 17.7299Z" fill="#00A7FD"/>
    <path fill-rule="evenodd" clip-rule="evenodd" d="M50.1247 18.9905C49.9684 18.9819 49.8121 18.97 49.6565 18.9545C49.4645 18.5111 49.3323 18.0551 49.2602 17.5858C49.5397 18.0612 49.8279 18.5295 50.1247 18.9905Z" fill="#00A7FD"/>
    <path fill-rule="evenodd" clip-rule="evenodd" d="M31.646 17.6938C31.6939 17.7057 31.7422 17.718 31.7901 17.7299C31.3254 19.2603 30.5809 20.6287 29.5568 21.8361C29.149 21.7968 28.7409 21.7608 28.3321 21.728C28.9924 21.1095 29.6227 20.4612 30.2232 19.783C30.7603 19.1292 31.2343 18.4329 31.646 17.6938Z" fill="#00ACFC"/>
    <path fill-rule="evenodd" clip-rule="evenodd" d="M49.6565 18.9545C49.8121 18.97 49.9684 18.9819 50.1247 18.9905C50.6157 19.6799 51.156 20.3344 51.7457 20.9536C52.4715 21.5148 53.2042 22.0669 53.9429 22.6105C54.5575 22.9537 55.1698 23.2959 55.78 23.637C54.8914 23.5805 54.0027 23.5203 53.1145 23.4569C52.4067 23.0092 51.7882 22.4567 51.2594 21.8C50.7609 21.1157 50.3167 20.3953 49.9266 19.6389C49.8185 19.417 49.7285 19.189 49.6565 18.9545Z" fill="#00ACFC"/>
    <path fill-rule="evenodd" clip-rule="evenodd" d="M56.5364 19.4228C56.9799 19.4638 57.4244 19.4998 57.8692 19.5308C58.5194 20.5505 58.9095 21.6671 59.0399 22.8806C59.0799 23.2037 59.0979 23.5279 59.0939 23.8531C58.6372 23.8394 58.1808 23.8153 57.7251 23.7811C57.7961 22.2045 57.3999 20.7515 56.5364 19.4228Z" fill="#00ABFC"/>
    <path fill-rule="evenodd" clip-rule="evenodd" d="M61.9396 19.819C62.5282 19.8532 63.1164 19.8892 63.7046 19.927C64.6552 21.2882 65.3879 22.765 65.9019 24.3574C65.2553 24.2983 64.6069 24.2501 63.9567 24.2133C63.4986 22.6458 62.8264 21.1809 61.9396 19.819Z" fill="#00ABFC"/>
    <path fill-rule="evenodd" clip-rule="evenodd" d="M16.5533 20.9356C17.1303 20.959 17.7066 20.995 18.2823 21.0436C17.4322 22.5878 16.88 24.2328 16.6253 25.9783C15.9618 25.9487 15.3012 25.9008 14.6442 25.8342C14.9845 24.0801 15.6207 22.4473 16.5533 20.9356Z" fill="#00B2FB"/>
    <path fill-rule="evenodd" clip-rule="evenodd" d="M22.1725 21.2958C22.5907 21.3368 23.0107 21.3728 23.4332 21.4038C23.1267 22.3861 23.1206 23.3705 23.4152 24.3574C23.4657 24.3797 23.5197 24.3916 23.5773 24.3934C23.8403 24.3358 24.0924 24.2457 24.3338 24.1233C25.5941 23.5416 26.7709 22.8334 27.8638 21.9981C28.0436 21.9434 28.1999 21.8533 28.3321 21.728C28.7409 21.7608 29.149 21.7968 29.5568 21.8361C29.3057 22.1631 29.0417 22.4812 28.7643 22.7906C27.7316 23.583 26.6993 24.3754 25.6665 25.1678C25.168 25.6123 24.676 26.0626 24.1897 26.5186C23.2661 26.4433 22.3418 26.3831 21.4161 26.3385C21.5166 26.0327 21.5947 25.7204 21.6502 25.402C21.6999 24.5217 21.7839 23.6449 21.9024 22.7726C21.9614 22.274 22.0515 21.7817 22.1725 21.2958Z" fill="#00B2FB"/>
    <path fill-rule="evenodd" clip-rule="evenodd" d="M53.1145 23.4569C54.0027 23.5203 54.8914 23.5805 55.78 23.637C56.2987 23.9201 56.8268 24.1845 57.3649 24.4294C57.4229 24.4244 57.4708 24.4006 57.509 24.3574C57.5926 24.1658 57.6646 23.9734 57.7251 23.7811C58.1808 23.8153 58.6372 23.8394 59.0939 23.8531C59.1307 24.709 59.2805 25.5493 59.5442 26.3745C59.9386 27.3564 60.4609 28.2569 61.1111 29.0759C60.2351 29.0111 59.3583 28.9509 58.4816 28.8958C57.9964 28.1279 57.4741 27.3837 56.9147 26.6626C55.7555 25.452 54.4887 24.3837 53.1145 23.4569Z" fill="#00B1FB"/>
    <path fill-rule="evenodd" clip-rule="evenodd" d="M63.9567 24.2133C64.6069 24.2501 65.2553 24.2983 65.9019 24.3574C66.476 26.0002 66.7044 27.6932 66.5863 29.4361C65.8522 29.407 65.1199 29.3587 64.389 29.2921C64.5871 27.57 64.443 25.8771 63.9567 24.2133Z" fill="#00B2FB"/>
    <path fill-rule="evenodd" clip-rule="evenodd" d="M14.6442 25.8342C15.3012 25.9008 15.9618 25.9487 16.6253 25.9783C16.4193 27.2051 16.4373 28.4297 16.6793 29.6522C16.7434 29.9109 16.8454 30.1511 16.9855 30.3726C16.1214 30.3064 15.2569 30.2462 14.392 30.1925C14.2429 28.7273 14.3272 27.2742 14.6442 25.8342Z" fill="#00B8FA"/>
    <path fill-rule="evenodd" clip-rule="evenodd" d="M21.4161 26.3385C22.3418 26.3831 23.2661 26.4433 24.1897 26.5186C23.126 27.7807 22.2615 29.1732 21.5962 30.6968C20.5408 30.6111 19.4843 30.539 18.4263 30.4807C18.6821 30.2912 18.9342 30.0931 19.1828 29.8864C20.1391 28.8393 20.8837 27.6568 21.4161 26.3385Z" fill="#00B8FA"/>
    <path fill-rule="evenodd" clip-rule="evenodd" d="M58.4816 28.8958C59.3583 28.9509 60.2351 29.0111 61.1111 29.0759C61.4882 29.5312 61.9086 29.9454 62.3718 30.3186C62.6578 30.5308 62.9759 30.6687 63.3264 30.7328C63.7727 30.6471 64.0608 30.3827 64.1909 29.9404C64.269 29.7232 64.335 29.5071 64.389 29.2921C65.1199 29.3587 65.8522 29.407 66.5863 29.4361C66.5182 30.708 66.2718 31.9445 65.8478 33.1461C65.7657 33.3457 65.6757 33.538 65.5777 33.7224C63.8224 33.6227 62.0693 33.5027 60.3186 33.3622C59.9044 31.7896 59.292 30.3006 58.4816 28.8958Z" fill="#00B8FA"/>
    <path fill-rule="evenodd" clip-rule="evenodd" d="M68.3873 29.5802H68.2793C68.2263 29.4408 68.2083 29.2967 68.2252 29.148C68.2832 29.2913 68.3372 29.4354 68.3873 29.5802Z" fill="#00B5FB"/>
    <path fill-rule="evenodd" clip-rule="evenodd" d="M68.2793 29.5802H68.3873C68.968 31.0026 69.3282 32.4794 69.4679 34.0106C69.1438 33.9882 68.8196 33.9641 68.4954 33.9385C68.5962 32.4765 68.5242 31.0239 68.2793 29.5802Z" fill="#00B9FA"/>
    <path fill-rule="evenodd" clip-rule="evenodd" d="M12.663 30.0845C12.583 30.0531 12.4991 30.0413 12.4109 30.0485C12.4354 29.8496 12.5434 29.7477 12.735 29.7423C12.7015 29.8536 12.6774 29.9674 12.663 30.0845Z" fill="#00BBFA"/>
    <path fill-rule="evenodd" clip-rule="evenodd" d="M12.4109 30.0485C12.4991 30.0413 12.583 30.0531 12.663 30.0845C12.5409 30.8358 12.4689 31.5922 12.4469 32.3537C12.3104 32.3713 12.2862 32.3414 12.3748 32.2636C12.3269 32.2575 12.2787 32.2518 12.2308 32.2456C12.0823 32.3018 11.9264 32.3256 11.7625 32.3177C11.917 31.5433 12.1331 30.7869 12.4109 30.0485Z" fill="#00BDF9"/>
    <path fill-rule="evenodd" clip-rule="evenodd" d="M14.392 30.1925C15.2569 30.2462 16.1214 30.3064 16.9855 30.3726C17.2369 30.6943 17.5611 30.7966 17.9581 30.6788C18.1205 30.623 18.2769 30.5567 18.4263 30.4807C19.4843 30.539 20.5408 30.6111 21.5962 30.6968C21.2767 31.4273 21.0004 32.1718 20.7677 32.93C20.7065 32.9358 20.6463 32.93 20.5876 32.912C20.6834 32.8407 20.6654 32.8104 20.5336 32.8219C20.4341 32.8547 20.3322 32.8785 20.2274 32.894C20.0909 32.9084 20.0671 32.8785 20.1553 32.8039C20.1074 32.7978 20.0592 32.792 20.0113 32.7859C19.9064 32.8014 19.8045 32.8252 19.7051 32.858C19.6629 32.8461 19.6212 32.8338 19.579 32.8219C19.5866 32.8007 19.5985 32.7827 19.615 32.7679C19.5729 32.7618 19.5311 32.756 19.489 32.7499C19.3895 32.7827 19.2876 32.8065 19.1828 32.8219C19.0463 32.8364 19.0225 32.8065 19.1107 32.7319C19.0628 32.7258 19.0146 32.72 18.9667 32.7139C18.8618 32.7294 18.7599 32.7531 18.6605 32.7859C18.6183 32.7798 18.5766 32.774 18.5344 32.7679C18.551 32.7531 18.5629 32.7351 18.5704 32.7139C18.5283 32.702 18.4865 32.6898 18.4444 32.6779C18.3449 32.7106 18.243 32.7344 18.1382 32.7499C18.0017 32.7643 17.9779 32.7344 18.0661 32.6599C17.9188 32.6426 17.7747 32.6606 17.6339 32.7139C17.4974 32.7283 17.4736 32.6984 17.5618 32.6238C17.5139 32.6177 17.4657 32.612 17.4178 32.6058C17.3129 32.6213 17.211 32.6451 17.1116 32.6779C17.0694 32.666 17.0277 32.6537 16.9855 32.6418C16.9931 32.6206 17.005 32.6026 17.0215 32.5878C16.9794 32.5817 16.9376 32.5759 16.8955 32.5698C16.796 32.6026 16.6941 32.6264 16.5893 32.6418C16.4528 32.6563 16.429 32.6264 16.5172 32.5518C16.4693 32.5457 16.4211 32.5399 16.3732 32.5338C16.2683 32.5493 16.1664 32.573 16.067 32.6058C16.0248 32.5997 15.983 32.5939 15.9409 32.5878C15.9575 32.573 15.9694 32.555 15.9769 32.5338C15.9348 32.5219 15.893 32.5097 15.8509 32.4978C15.7514 32.5305 15.6495 32.5543 15.5447 32.5698C15.4082 32.5842 15.3844 32.5543 15.4726 32.4798C15.4247 32.4736 15.3765 32.4679 15.3285 32.4617C15.2039 32.5125 15.0717 32.5367 14.9323 32.5338C14.638 31.7842 14.4579 31.0037 14.392 30.1925Z" fill="#00BDF9"/>
    <path fill-rule="evenodd" clip-rule="evenodd" d="M12.4469 32.3537C12.4263 33.0672 12.4624 33.7754 12.5549 34.4788C12.2073 34.4486 11.859 34.4244 11.5103 34.4068C11.5417 33.7033 11.626 33.0071 11.7625 32.3177C11.9264 32.3256 12.0823 32.3018 12.2308 32.2456C12.2787 32.2518 12.3269 32.2575 12.3748 32.2636C12.2862 32.3414 12.3104 32.3713 12.4469 32.3537Z" fill="#00C0F9"/>
    <path fill-rule="evenodd" clip-rule="evenodd" d="M20.7677 32.93C20.6006 33.6227 20.4565 34.3189 20.3355 35.0191C18.8957 34.9085 17.4549 34.8127 16.0129 34.731C15.5483 34.0538 15.1881 33.3215 14.9323 32.5338C15.0717 32.5367 15.2039 32.5125 15.3285 32.4617C15.3765 32.4679 15.4247 32.4736 15.4726 32.4798C15.3844 32.5543 15.4082 32.5842 15.5447 32.5698C15.6495 32.5543 15.7514 32.5305 15.8509 32.4978C15.893 32.5097 15.9348 32.5219 15.9769 32.5338C15.9694 32.555 15.9575 32.573 15.9409 32.5878C15.983 32.5939 16.0248 32.5997 16.067 32.6058C16.1664 32.573 16.2683 32.5493 16.3732 32.5338C16.4211 32.5399 16.4693 32.5457 16.5172 32.5518C16.429 32.6264 16.4528 32.6563 16.5893 32.6418C16.6941 32.6264 16.796 32.6026 16.8955 32.5698C16.9376 32.5759 16.9794 32.5817 17.0215 32.5878C17.005 32.6026 16.9931 32.6206 16.9855 32.6418C17.0277 32.6537 17.0694 32.666 17.1116 32.6779C17.211 32.6451 17.3129 32.6213 17.4178 32.6058C17.4657 32.612 17.5139 32.6177 17.5618 32.6238C17.4736 32.6984 17.4974 32.7283 17.6339 32.7139C17.7747 32.6606 17.9188 32.6426 18.0661 32.6599C17.9779 32.7344 18.0017 32.7643 18.1382 32.7499C18.243 32.7344 18.3449 32.7106 18.4444 32.6779C18.4865 32.6898 18.5283 32.702 18.5704 32.7139C18.5629 32.7351 18.551 32.7531 18.5344 32.7679C18.5766 32.774 18.6183 32.7798 18.6605 32.7859C18.7599 32.7531 18.8618 32.7294 18.9667 32.7139C19.0146 32.72 19.0628 32.7258 19.1107 32.7319C19.0225 32.8065 19.0463 32.8364 19.1828 32.8219C19.2876 32.8065 19.3895 32.7827 19.489 32.7499C19.5311 32.756 19.5729 32.7618 19.615 32.7679C19.5985 32.7827 19.5866 32.8007 19.579 32.8219C19.6212 32.8338 19.6629 32.8461 19.7051 32.858C19.8045 32.8252 19.9064 32.8014 20.0113 32.7859C20.0592 32.792 20.1074 32.7978 20.1553 32.8039C20.0671 32.8785 20.0909 32.9084 20.2274 32.894C20.3322 32.8785 20.4341 32.8547 20.5336 32.8219C20.6654 32.8104 20.6834 32.8407 20.5876 32.912C20.6463 32.9296 20.7065 32.9358 20.7677 32.93Z" fill="#00BFF9"/>
    <path fill-rule="evenodd" clip-rule="evenodd" d="M60.3186 33.3622C62.0693 33.5027 63.8224 33.6227 65.5777 33.7224C65.5089 33.8816 65.4311 34.038 65.3436 34.1907C64.9383 34.7252 64.5601 35.2774 64.2089 35.8476C64.0749 35.8429 63.9488 35.8667 63.8307 35.9196C63.7885 35.9135 63.7467 35.9077 63.7046 35.9016C63.7212 35.8868 63.7331 35.8688 63.7406 35.8476C63.6985 35.8357 63.6567 35.8234 63.6145 35.8115C63.5155 35.8443 63.4132 35.8681 63.3084 35.8836C63.1719 35.898 63.1481 35.8681 63.2363 35.7935C63.1884 35.7874 63.1402 35.7816 63.0922 35.7755C62.9514 35.8288 62.8073 35.8468 62.66 35.8296C62.7482 35.755 62.7245 35.7251 62.588 35.7395C62.4799 35.7636 62.3718 35.7874 62.2638 35.8115C62.1272 35.826 62.1035 35.7961 62.1917 35.7215C62.1496 35.7154 62.1078 35.7096 62.0657 35.7035C61.9666 35.7363 61.8643 35.76 61.7595 35.7755C61.623 35.7899 61.5992 35.76 61.6874 35.6855C61.6395 35.6794 61.5913 35.6736 61.5433 35.6675C61.4385 35.683 61.3362 35.7067 61.2372 35.7395C61.195 35.7334 61.1532 35.7276 61.1111 35.7215C61.1277 35.7067 61.1396 35.6887 61.1471 35.6675C61.105 35.6556 61.0632 35.6433 61.021 35.6314C60.9278 35.6477 60.8377 35.6714 60.7509 35.7035C60.6716 34.9103 60.5276 34.1302 60.3186 33.3622Z" fill="#00BCFA"/>
    <path fill-rule="evenodd" clip-rule="evenodd" d="M68.4954 33.9385C68.8196 33.9641 69.1438 33.9882 69.4679 34.0106C69.5277 34.7475 69.504 35.4798 69.3959 36.2078C69.2619 36.2031 69.1358 36.2268 69.0177 36.2798C68.8858 36.2913 68.8678 36.2611 68.9637 36.1897C68.9157 36.1836 68.8675 36.1779 68.8196 36.1717C68.7115 36.1959 68.6034 36.2196 68.4954 36.2438C68.3589 36.2582 68.3351 36.2283 68.4233 36.1537C68.3037 36.1202 68.1957 36.1382 68.0991 36.2078C68.2821 35.4589 68.414 34.7025 68.4954 33.9385Z" fill="#00BDFA"/>
    <path fill-rule="evenodd" clip-rule="evenodd" d="M11.5103 34.4068C11.859 34.4244 12.2073 34.4486 12.5549 34.4788C12.7347 36.0993 13.2512 37.5999 14.1038 38.9812C13.4792 38.9485 12.855 38.9124 12.2308 38.8732C11.6858 37.4364 11.4455 35.9477 11.5103 34.4068Z" fill="#00C4F8"/>
    <path fill-rule="evenodd" clip-rule="evenodd" d="M16.0129 34.731C17.4549 34.8127 18.8957 34.9085 20.3355 35.0191C20.2396 35.7485 20.1795 36.4808 20.1553 37.2163C20.177 37.954 20.249 38.6862 20.3715 39.4135C19.6377 39.3807 18.9054 39.3328 18.1742 39.2694C17.8151 38.2025 17.3648 37.1698 16.8234 36.1717C16.5432 35.6952 16.273 35.2151 16.0129 34.731Z" fill="#00C4F8"/>
    <path fill-rule="evenodd" clip-rule="evenodd" d="M64.2089 35.8476C63.8228 36.5352 63.4867 37.2437 63.2003 37.9727C62.3956 37.9298 61.5909 37.8819 60.7869 37.8286C60.824 37.1198 60.8121 36.4116 60.7509 35.7035C60.8377 35.6714 60.9278 35.6477 61.021 35.6314C61.0632 35.6433 61.105 35.6556 61.1471 35.6675C61.1396 35.6887 61.1277 35.7067 61.1111 35.7215C61.1532 35.7276 61.195 35.7334 61.2372 35.7395C61.3362 35.7067 61.4385 35.683 61.5433 35.6675C61.5913 35.6736 61.6395 35.6794 61.6874 35.6855C61.5992 35.76 61.623 35.7899 61.7595 35.7755C61.8643 35.76 61.9666 35.7363 62.0657 35.7035C62.1078 35.7096 62.1496 35.7154 62.1917 35.7215C62.1035 35.7961 62.1272 35.826 62.2638 35.8115C62.3718 35.7874 62.4799 35.7636 62.588 35.7395C62.7245 35.7251 62.7482 35.755 62.66 35.8296C62.8073 35.8468 62.9514 35.8288 63.0922 35.7755C63.1402 35.7816 63.1884 35.7874 63.2363 35.7935C63.1481 35.8681 63.1719 35.898 63.3084 35.8836C63.4132 35.8681 63.5155 35.8443 63.6145 35.8115C63.6567 35.8234 63.6985 35.8357 63.7406 35.8476C63.7331 35.8688 63.7212 35.8868 63.7046 35.9016C63.7467 35.9077 63.7885 35.9135 63.8307 35.9196C63.9488 35.8667 64.0749 35.8429 64.2089 35.8476Z" fill="#00BFF9"/>
    <path fill-rule="evenodd" clip-rule="evenodd" d="M69.3959 36.2078C69.2875 36.9426 69.1193 37.6629 68.8916 38.3689C68.3499 38.3484 67.8095 38.3124 67.2707 38.2609C67.5981 37.5941 67.8744 36.9098 68.0991 36.2078C68.1957 36.1382 68.3037 36.1202 68.4233 36.1537C68.3351 36.2283 68.3589 36.2582 68.4954 36.2438C68.6034 36.2196 68.7115 36.1959 68.8196 36.1717C68.8675 36.1779 68.9157 36.1836 68.9637 36.1897C68.8678 36.2611 68.8858 36.2913 69.0177 36.2798C69.1358 36.2268 69.2619 36.2031 69.3959 36.2078Z" fill="#00C0F9"/>
    <path fill-rule="evenodd" clip-rule="evenodd" d="M60.7869 37.8286C61.5909 37.8819 62.3956 37.9298 63.2003 37.9727C63.0732 38.3837 62.9352 38.7918 62.7861 39.1974C62.5058 40.2351 62.2238 41.2674 61.9396 42.295C61.2671 42.2622 60.5946 42.2262 59.9224 42.187C60.3676 40.7653 60.6558 39.3126 60.7869 37.8286Z" fill="#00C4F8"/>
    <path fill-rule="evenodd" clip-rule="evenodd" d="M67.2707 38.2609C67.8095 38.3124 68.3499 38.3484 68.8916 38.3689C68.5238 39.3202 68.0617 40.2207 67.5048 41.0704C67.0459 41.6434 66.5236 42.1477 65.9379 42.5832C65.037 42.5281 64.1365 42.4683 63.2363 42.4031C64.3922 41.674 65.4131 40.7797 66.2981 39.7196C66.355 39.6941 66.409 39.6642 66.4602 39.6296C66.7581 39.1902 67.0282 38.7338 67.2707 38.2609Z" fill="#00C4F8"/>
    <path fill-rule="evenodd" clip-rule="evenodd" d="M12.2308 38.8732C12.855 38.9124 13.4792 38.9485 14.1038 38.9812C15.0397 40.3312 16.2046 41.4421 17.5979 42.313C17.9905 42.5425 18.4047 42.7164 18.8406 42.8353C19.0463 42.8213 19.1183 42.7132 19.0567 42.5111C18.7513 41.4327 18.457 40.3521 18.1742 39.2694C18.9054 39.3328 19.6377 39.3807 20.3715 39.4135C20.6748 41.1557 21.1791 42.8364 21.8843 44.4562C20.2753 44.3362 18.6666 44.2159 17.0576 44.096C15.871 43.354 14.7843 42.4776 13.7977 41.4666C13.5077 41.1165 13.2314 40.7563 12.9692 40.386C12.9188 40.283 12.8827 40.1749 12.8611 40.0618C12.6133 39.6865 12.4033 39.2903 12.2308 38.8732Z" fill="#00CBF7"/>
    <path fill-rule="evenodd" clip-rule="evenodd" d="M59.9224 42.187C60.5946 42.2262 61.2671 42.2622 61.9396 42.295C61.8286 42.5713 61.9068 42.7636 62.1737 42.8713C62.5321 42.7258 62.8866 42.5698 63.2363 42.4031C64.1365 42.4683 65.037 42.5281 65.9379 42.5832C65.4001 42.9607 64.8598 43.3389 64.317 43.7178C63.5303 44.3989 62.8401 45.1614 62.2458 46.005C61.9752 46.4023 61.7051 46.7985 61.4353 47.1936C60.2232 47.1018 59.0107 47.0175 57.7972 46.9415C58.7009 45.4464 59.4091 43.8615 59.9224 42.187Z" fill="#00CAF7"/>
    <path fill-rule="evenodd" clip-rule="evenodd" d="M26.8552 44.7804C26.6269 44.775 26.3985 44.7627 26.1708 44.7443C26.4799 43.8503 26.8941 43.01 27.4136 42.223C27.2947 42.7002 27.1747 43.1804 27.0533 43.6638C26.9716 44.0337 26.9057 44.4058 26.8552 44.7804Z" fill="#00CDF7"/>
    <path fill-rule="evenodd" clip-rule="evenodd" d="M55.2397 46.7614C54.904 46.734 54.5675 46.7099 54.2311 46.6894C54.2325 45.1852 53.9923 43.7203 53.5107 42.295C53.5226 42.2831 53.5348 42.2709 53.5467 42.259C53.9887 42.7698 54.3309 43.3461 54.5733 43.9879C54.9079 44.8866 55.1302 45.8109 55.2397 46.7614Z" fill="#00CBF7"/>
    <path fill-rule="evenodd" clip-rule="evenodd" d="M17.0576 44.096C18.6666 44.2159 20.2753 44.3362 21.8843 44.4562C22.5443 46.0263 23.4206 47.4551 24.5139 48.7425C23.1429 48.6636 21.7741 48.5674 20.4075 48.4543C20.1896 48.1993 19.9792 47.9353 19.7771 47.6619C19.1439 46.7675 18.5196 45.8671 17.904 44.9604C17.6386 44.6532 17.3565 44.3651 17.0576 44.096Z" fill="#00D1F6"/>
    <path fill-rule="evenodd" clip-rule="evenodd" d="M26.1708 44.7443C26.3985 44.7627 26.6269 44.775 26.8552 44.7804C26.6344 46.1707 26.6823 47.5513 26.9993 48.9226C26.5401 48.8992 26.084 48.8631 25.6305 48.8145C25.5477 47.4235 25.7278 46.0666 26.1708 44.7443Z" fill="#00D1F5"/>
    <path fill-rule="evenodd" clip-rule="evenodd" d="M49.6565 46.3652C49.4756 46.3612 49.2955 46.349 49.1161 46.3292C49.1187 45.8476 49.1125 45.3675 49.0981 44.8884C49.3301 45.3621 49.5163 45.8544 49.6565 46.3652Z" fill="#00CDF7"/>
    <path fill-rule="evenodd" clip-rule="evenodd" d="M31.8621 45.1405H31.7541C31.8751 44.8607 31.9111 44.8607 31.8621 45.1405Z" fill="#00CEF7"/>
    <path fill-rule="evenodd" clip-rule="evenodd" d="M31.7541 45.1405H31.8621C31.8258 45.7042 31.82 46.2687 31.8441 46.8335C31.9299 47.6547 32.0437 48.4709 32.1863 49.2828C31.7905 49.2554 31.3942 49.2316 30.9976 49.2107C30.9584 47.7981 31.2105 46.4412 31.7541 45.1405Z" fill="#00D2F5"/>
    <path fill-rule="evenodd" clip-rule="evenodd" d="M49.1161 46.3292C49.2955 46.349 49.4756 46.3612 49.6565 46.3652C49.8639 47.0881 49.9241 47.8204 49.8366 48.5624C49.887 49.2111 49.8747 49.8594 49.8005 50.5074C49.3431 50.4782 48.8867 50.4422 48.4317 50.3994C48.6515 49.6887 48.8377 48.9683 48.9901 48.2382C49.0488 47.6028 49.0909 46.9664 49.1161 46.3292Z" fill="#00D1F5"/>
    <path fill-rule="evenodd" clip-rule="evenodd" d="M54.2311 46.6894C54.5675 46.7099 54.904 46.734 55.2397 46.7614C55.2721 47.2531 55.2962 47.7455 55.3117 48.2382C55.2865 48.8635 55.2566 49.4881 55.2217 50.1112C55.391 49.9963 55.5473 49.8641 55.69 49.715C56.463 48.8397 57.1654 47.9155 57.7972 46.9415C59.0107 47.0175 60.2232 47.1018 61.4353 47.1936C60.5002 48.5854 59.4437 49.8821 58.2654 51.0837C56.5966 50.9742 54.9278 50.8662 53.2585 50.7596C53.894 49.4791 54.2181 48.1222 54.2311 46.6894Z" fill="#00D1F6"/>
    <path fill-rule="evenodd" clip-rule="evenodd" d="M20.4075 48.4543C21.7741 48.5674 23.1429 48.6636 24.5139 48.7425C24.873 49.1798 25.2754 49.576 25.7206 49.9311C25.6918 49.5601 25.6619 49.188 25.6305 48.8145C26.084 48.8631 26.5401 48.8992 26.9993 48.9226C27.2551 50.1422 27.7532 51.2465 28.4942 52.2364C28.7946 52.5904 29.1008 52.9387 29.4127 53.2809C27.888 53.1711 26.3632 53.063 24.8381 52.9567C24.0207 52.3693 23.2582 51.709 22.5507 50.9757C21.8019 50.1609 21.0872 49.3206 20.4075 48.4543Z" fill="#00D7F4"/>
    <path fill-rule="evenodd" clip-rule="evenodd" d="M30.9976 49.2107C31.3942 49.2316 31.7905 49.2554 32.1863 49.2828C32.6063 50.7952 33.1945 52.236 33.9513 53.6051C33.3404 53.5485 32.7281 53.5006 32.1143 53.461C31.472 52.1175 31.0999 50.7008 30.9976 49.2107Z" fill="#00D7F4"/>
    <path fill-rule="evenodd" clip-rule="evenodd" d="M48.4317 50.3994C48.8867 50.4422 49.3431 50.4782 49.8005 50.5074C49.5217 51.9648 48.9937 53.3213 48.2156 54.5776C47.6036 54.5329 46.9913 54.4969 46.3786 54.4695C47.2438 53.2078 47.9282 51.8509 48.4317 50.3994Z" fill="#00D7F4"/>
    <path fill-rule="evenodd" clip-rule="evenodd" d="M53.2585 50.7596C54.9278 50.8662 56.5966 50.9742 58.2654 51.0837C57.5472 51.8441 56.7789 52.5465 55.9601 53.1909C55.3978 53.573 54.8453 53.9692 54.3032 54.3795C54.0132 54.5845 53.7128 54.7707 53.4026 54.9378C52.1776 54.8571 50.9528 54.7728 49.7285 54.6857C51.2778 53.7124 52.4546 52.4035 53.2585 50.7596Z" fill="#00D7F4"/>
    <path fill-rule="evenodd" clip-rule="evenodd" d="M24.8381 52.9567C26.3632 53.063 27.888 53.1711 29.4127 53.2809C30.2866 54.078 31.2469 54.7501 32.2944 55.298C30.6965 55.2011 29.0997 55.093 27.5036 54.9738C26.9035 54.6086 26.3272 54.2062 25.7746 53.7672C25.4555 53.5021 25.1432 53.2319 24.8381 52.9567Z" fill="#00DBF3"/>
    <path fill-rule="evenodd" clip-rule="evenodd" d="M32.1143 53.461C32.7281 53.5006 33.3404 53.5485 33.9513 53.6051C34.3631 54.2718 34.8191 54.9083 35.3201 55.5141C34.6112 55.4712 33.9031 55.4233 33.1949 55.37C32.7893 54.7631 32.4291 54.1266 32.1143 53.461Z" fill="#00DBF3"/>
    <path fill-rule="evenodd" clip-rule="evenodd" d="M46.3786 54.4695C46.9913 54.4969 47.6036 54.5329 48.2156 54.5776C48.0139 54.9508 47.7978 55.3171 47.5672 55.6762C48.3255 55.4352 49.0459 55.1049 49.7285 54.6857C50.9528 54.7728 52.1776 54.8571 53.4026 54.9378C52.4711 55.5418 51.4986 56.0821 50.4849 56.5587C48.6356 56.4402 46.7867 56.3202 44.9377 56.1985C45.4597 55.6528 45.9402 55.0765 46.3786 54.4695Z" fill="#00DBF3"/>
    <path fill-rule="evenodd" clip-rule="evenodd" d="M27.5036 54.9738C29.0997 55.093 30.6965 55.2011 32.2944 55.298C32.6766 55.477 33.0609 55.6571 33.4471 55.8383C33.4589 55.8322 33.4712 55.8264 33.4831 55.8203C33.3728 55.6773 33.2767 55.5271 33.1949 55.37C33.9031 55.4233 34.6112 55.4712 35.3201 55.5141C35.8007 56.0847 36.3529 56.5709 36.9771 56.9729C37.1853 57.0968 37.4014 57.2049 37.6255 57.2971C37.7901 57.3918 37.8441 57.5301 37.7876 57.7113C37.7422 57.8143 37.6882 57.9101 37.6255 57.9994C35.8716 57.8907 34.1185 57.7704 32.3664 57.6392C31.2998 57.0939 30.2311 56.5475 29.1606 56.0004C28.5878 55.6845 28.0356 55.3423 27.5036 54.9738Z" fill="#00DEF3"/>
    <path fill-rule="evenodd" clip-rule="evenodd" d="M44.9377 56.1985C46.7867 56.3202 48.6356 56.4402 50.4849 56.5587C49.7267 56.9196 48.9825 57.31 48.2516 57.7293C47.8291 58.002 47.4329 58.3081 47.0629 58.6478C45.9218 58.5844 44.781 58.5124 43.641 58.4317C43.4205 58.2076 43.2343 57.9555 43.0826 57.6753C43.0362 57.5283 43.078 57.4141 43.2087 57.3331C43.8528 57.0536 44.4291 56.6754 44.9377 56.1985Z" fill="#00DEF3"/>
    <path fill-rule="evenodd" clip-rule="evenodd" d="M32.3664 57.6392C34.1185 57.7704 35.8716 57.8907 37.6255 57.9994C37.1785 58.6561 36.578 59.1186 35.8244 59.3862C35.5139 59.5058 35.1959 59.5958 34.8699 59.6563C34.787 59.6567 34.7089 59.6387 34.6357 59.6023C33.9931 58.8088 33.2367 58.1547 32.3664 57.6392Z" fill="#00E1F2"/>
    <path fill-rule="evenodd" clip-rule="evenodd" d="M30.0611 57.7833C30.18 57.7772 30.1918 57.8013 30.0971 57.8554C30.0683 57.8388 30.0564 57.815 30.0611 57.7833Z" fill="#00E1F2"/>
    <path fill-rule="evenodd" clip-rule="evenodd" d="M43.641 58.4317C44.781 58.5124 45.9218 58.5844 47.0629 58.6478C46.7809 58.9601 46.5046 59.2781 46.2345 59.6023C46.1671 59.6376 46.0951 59.6556 46.0183 59.6563C45.2468 59.5166 44.5505 59.2104 43.9291 58.7378C43.8258 58.6406 43.7296 58.5383 43.641 58.4317Z" fill="#00E1F2"/>
    <path fill-rule="evenodd" clip-rule="evenodd" d="M33.0148 63.4744C34.5551 63.3811 35.8215 63.9214 36.815 65.0952C37.1269 65.4785 37.4029 65.887 37.6435 66.3199C37.6676 66.3801 37.6676 66.4398 37.6435 66.5C36.9137 65.9547 36.1032 65.7926 35.2121 66.0137C34.1736 66.1946 33.3152 65.8884 32.6366 65.0952C32.4626 64.8431 32.2883 64.591 32.1143 64.3388C32.2112 64.193 32.2893 64.0366 32.3484 63.8706C32.5094 63.6311 32.7317 63.4992 33.0148 63.4744Z" fill="#00EAF0"/>
    <path fill-rule="evenodd" clip-rule="evenodd" d="M48.3957 63.6185C47.9087 63.6026 47.4282 63.5666 46.9549 63.5104C47.314 63.4722 47.6742 63.4661 48.0355 63.4924C48.1706 63.5032 48.2905 63.5453 48.3957 63.6185Z" fill="#00E7F0"/>
    <path fill-rule="evenodd" clip-rule="evenodd" d="M46.9549 63.5104C47.4282 63.5666 47.9087 63.6026 48.3957 63.6185C48.4761 63.6447 48.5423 63.6927 48.5938 63.7625C48.6861 63.9592 48.7884 64.1512 48.9 64.3388C48.632 64.784 48.3078 65.186 47.9274 65.5455C47.2866 65.986 46.5781 66.142 45.8022 66.0137C44.9121 65.7987 44.1017 65.9608 43.3708 66.5C43.3467 66.4398 43.3467 66.3801 43.3708 66.3199C43.941 65.2213 44.7756 64.3867 45.8743 63.8166C46.2222 63.6696 46.5824 63.5677 46.9549 63.5104Z" fill="#00E9F0"/>
  </g>
</svg>