<svg xmlns="http://www.w3.org/2000/svg" width="27" height="27" viewBox="0 0 27 27" fill="none">
  <path d="M0 13.5C0 6.04416 6.04416 0 13.5 0C20.9558 0 27 6.04416 27 13.5C27 20.9558 20.9558 27 13.5 27C6.04416 27 0 20.9558 0 13.5Z" fill="#1A1A1A"/>
  <path d="M13.5 0.5C20.6797 0.5 26.5 6.3203 26.5 13.5C26.5 20.6797 20.6797 26.5 13.5 26.5C6.3203 26.5 0.5 20.6797 0.5 13.5C0.5 6.3203 6.3203 0.5 13.5 0.5Z" stroke="#1A1A1A" stroke-opacity="0.4"/>
  <g opacity="0.97">
    <path fill-rule="evenodd" clip-rule="evenodd" d="M6.42076 5.35619C6.30364 5.34497 6.18626 5.33662 6.06862 5.33126C6.35894 5.0592 6.65017 4.78702 6.94244 4.51459C6.96683 4.49514 6.99291 4.49514 7.02069 4.51459C7.0083 4.52057 6.99526 4.52269 6.98157 4.52082C6.98952 4.58466 6.97426 4.64289 6.93592 4.69538C6.75633 4.91058 6.5847 5.13089 6.42076 5.35619Z" fill="#00A7FD"/>
    <path fill-rule="evenodd" clip-rule="evenodd" d="M20.3236 4.80759H20.1671C20.1051 4.75024 20.0616 4.68166 20.0367 4.60187C20.041 4.59152 20.0454 4.58104 20.0497 4.57069C20.1454 4.64563 20.2367 4.72468 20.3236 4.80759Z" fill="#00A1FD"/>
    <path fill-rule="evenodd" clip-rule="evenodd" d="M17.7413 4.6455H17.7282C17.7265 4.63453 17.7308 4.6263 17.7413 4.62057C17.7578 4.63004 17.7578 4.63827 17.7413 4.6455Z" fill="#00A1FD"/>
    <path fill-rule="evenodd" clip-rule="evenodd" d="M8.25969 5.48088C8.15639 5.46791 8.05206 5.45955 7.94668 5.45594C8.32529 5.16057 8.72085 4.88627 9.1335 4.63304C9.16546 4.64463 9.17628 4.66533 9.16611 4.69538C8.85779 4.9506 8.55574 5.21243 8.25969 5.48088Z" fill="#00A6FD"/>
    <path fill-rule="evenodd" clip-rule="evenodd" d="M17.7282 4.6455H17.7413C17.8006 4.65124 17.8572 4.66994 17.9108 4.70161C18.3609 4.99474 18.8 5.30221 19.228 5.62426C19.4534 5.80068 19.6403 6.00641 19.7889 6.24144C19.6278 6.23071 19.4668 6.21825 19.3063 6.20403C19.1521 5.98796 18.9805 5.78435 18.7911 5.59309C18.464 5.25944 18.1097 4.95808 17.7282 4.68914C17.7114 4.67306 17.7114 4.65847 17.7282 4.6455Z" fill="#00A6FD"/>
    <path fill-rule="evenodd" clip-rule="evenodd" d="M20.1671 4.80759H20.3236C20.8235 5.24186 21.2995 5.69894 21.7517 6.1791C21.8045 6.24406 21.8546 6.31051 21.9017 6.37859C21.6887 6.3655 21.4757 6.35303 21.2626 6.34118C21.1677 6.19431 21.0698 6.0488 20.9692 5.90479C20.6983 5.54047 20.4309 5.17478 20.1671 4.80759Z" fill="#00A6FD"/>
    <path fill-rule="evenodd" clip-rule="evenodd" d="M6.06862 5.33126C6.18626 5.33662 6.30364 5.34497 6.42076 5.35619C6.06341 5.80243 5.74166 6.27198 5.45565 6.7651C5.24723 6.74827 5.03856 6.7358 4.82963 6.7277C5.1652 6.20291 5.57811 5.73747 6.06862 5.33126Z" fill="#00ABFC"/>
    <path fill-rule="evenodd" clip-rule="evenodd" d="M7.94668 5.45594C8.05206 5.45955 8.15639 5.46791 8.25969 5.48088C8.02689 5.71378 7.816 5.96315 7.62715 6.22897C7.48942 6.4342 7.38717 6.65451 7.32066 6.88978C7.16768 6.87906 7.01561 6.86659 6.86419 6.85238C6.989 6.43706 7.21502 6.08172 7.54237 5.78635C7.67553 5.67363 7.81026 5.56341 7.94668 5.45594Z" fill="#00ABFC"/>
    <path fill-rule="evenodd" clip-rule="evenodd" d="M10.3464 5.61803C10.3291 5.61391 10.3116 5.60967 10.2942 5.60556C10.3823 5.41978 10.3996 5.4239 10.3464 5.61803Z" fill="#00A7FD"/>
    <path fill-rule="evenodd" clip-rule="evenodd" d="M16.9848 6.05441C16.9282 6.05142 16.8716 6.04731 16.8153 6.04195C16.7458 5.88846 16.6979 5.73061 16.6718 5.56815C16.773 5.73273 16.8773 5.89482 16.9848 6.05441Z" fill="#00A7FD"/>
    <path fill-rule="evenodd" clip-rule="evenodd" d="M10.2942 5.60556C10.3116 5.60967 10.3291 5.61391 10.3464 5.61803C10.1782 6.1478 9.90859 6.62147 9.53781 7.0394C9.39017 7.02581 9.2424 7.01334 9.09438 7.002C9.33344 6.78792 9.56167 6.56349 9.77908 6.32871C9.97354 6.10242 10.1452 5.86141 10.2942 5.60556Z" fill="#00ACFC"/>
    <path fill-rule="evenodd" clip-rule="evenodd" d="M16.8153 6.04195C16.8716 6.04731 16.9282 6.05142 16.9848 6.05441C17.1626 6.29306 17.3582 6.5196 17.5717 6.73393C17.8345 6.92819 18.0998 7.11932 18.3673 7.30747C18.5898 7.42629 18.8115 7.54474 19.0324 7.66281C18.7107 7.64324 18.3889 7.62242 18.0673 7.60047C17.811 7.44549 17.5871 7.25423 17.3956 7.02693C17.2151 6.79004 17.0543 6.54067 16.9131 6.27884C16.874 6.20204 16.8414 6.12311 16.8153 6.04195Z" fill="#00ACFC"/>
    <path fill-rule="evenodd" clip-rule="evenodd" d="M19.3063 6.20403C19.4668 6.21825 19.6278 6.23071 19.7889 6.24144C20.0243 6.59441 20.1655 6.98093 20.2127 7.40098C20.2272 7.51282 20.2337 7.62504 20.2323 7.73762C20.0669 7.73289 19.9017 7.72453 19.7367 7.71269C19.7624 7.16695 19.6189 6.66398 19.3063 6.20403Z" fill="#00ABFC"/>
    <path fill-rule="evenodd" clip-rule="evenodd" d="M21.2626 6.34118C21.4757 6.35303 21.6887 6.3655 21.9017 6.37859C22.2458 6.84976 22.5111 7.36096 22.6972 7.91218C22.4631 7.89173 22.2284 7.87502 21.993 7.86231C21.8271 7.31969 21.5837 6.81261 21.2626 6.34118Z" fill="#00ABFC"/>
    <path fill-rule="evenodd" clip-rule="evenodd" d="M4.82963 6.7277C5.03856 6.7358 5.24723 6.74827 5.45565 6.7651C5.14785 7.29961 4.94792 7.86904 4.85571 8.47325C4.61548 8.46302 4.37629 8.44644 4.1384 8.42338C4.26165 7.81617 4.49197 7.25099 4.82963 6.7277Z" fill="#00B2FB"/>
    <path fill-rule="evenodd" clip-rule="evenodd" d="M6.86419 6.85238C7.01561 6.86659 7.16768 6.87906 7.32066 6.88978C7.20967 7.22979 7.20745 7.57055 7.31414 7.91218C7.3324 7.91991 7.35196 7.92402 7.37283 7.92465C7.46803 7.9047 7.55933 7.87353 7.64671 7.83114C8.10305 7.62977 8.52913 7.38465 8.92483 7.09551C8.98991 7.07656 9.04651 7.04539 9.09438 7.002C9.2424 7.01334 9.39017 7.02581 9.53781 7.0394C9.4469 7.15261 9.35131 7.26271 9.25088 7.36981C8.87697 7.64411 8.50318 7.91841 8.12927 8.19271C7.94876 8.34657 7.77061 8.50242 7.59454 8.66027C7.26014 8.63421 6.92548 8.61339 6.5903 8.59793C6.62669 8.49208 6.65499 8.38398 6.67508 8.27376C6.69308 7.96903 6.72346 7.66556 6.76637 7.36358C6.78776 7.19102 6.82037 7.02058 6.86419 6.85238Z" fill="#00B2FB"/>
    <path fill-rule="evenodd" clip-rule="evenodd" d="M18.0673 7.60047C18.3889 7.62242 18.7107 7.64324 19.0324 7.66281C19.2202 7.76081 19.4114 7.85233 19.6063 7.93712C19.6273 7.93537 19.6446 7.92714 19.6584 7.91218C19.6887 7.84585 19.7148 7.77927 19.7367 7.71269C19.9017 7.72453 20.0669 7.73289 20.2323 7.73762C20.2456 8.03387 20.2998 8.32475 20.3953 8.6104C20.5381 8.95028 20.7272 9.26199 20.9626 9.54552C20.6455 9.52307 20.328 9.50225 20.0106 9.48317C19.8349 9.21735 19.6458 8.95976 19.4432 8.71014C19.0235 8.29109 18.5649 7.92128 18.0673 7.60047Z" fill="#00B1FB"/>
    <path fill-rule="evenodd" clip-rule="evenodd" d="M21.993 7.86231C22.2284 7.87502 22.4631 7.89173 22.6972 7.91218C22.9051 8.48085 22.9878 9.06686 22.945 9.6702C22.6792 9.6601 22.4141 9.64339 22.1495 9.62033C22.2212 9.02422 22.169 8.43821 21.993 7.86231Z" fill="#00B2FB"/>
    <path fill-rule="evenodd" clip-rule="evenodd" d="M4.1384 8.42338C4.37629 8.44644 4.61548 8.46302 4.85571 8.47325C4.78111 8.89792 4.78763 9.32184 4.87528 9.74501C4.89849 9.83453 4.9354 9.91769 4.98613 9.99437C4.67325 9.97143 4.36024 9.95061 4.04711 9.93203C3.99311 9.42482 4.02363 8.92186 4.1384 8.42338Z" fill="#00B8FA"/>
    <path fill-rule="evenodd" clip-rule="evenodd" d="M6.5903 8.59793C6.92548 8.61339 7.26014 8.63421 7.59454 8.66027C7.20941 9.09716 6.8964 9.57918 6.65551 10.1066C6.27338 10.0769 5.89086 10.052 5.50781 10.0318C5.60041 9.96619 5.69171 9.89762 5.7817 9.82605C6.12796 9.4636 6.39754 9.05427 6.5903 8.59793Z" fill="#00B8FA"/>
    <path fill-rule="evenodd" clip-rule="evenodd" d="M20.0106 9.48317C20.328 9.50225 20.6455 9.52307 20.9626 9.54552C21.0992 9.70311 21.2514 9.8465 21.4191 9.97567C21.5227 10.0491 21.6378 10.0969 21.7647 10.1191C21.9263 10.0894 22.0307 9.99786 22.0777 9.84475C22.106 9.76957 22.1299 9.69476 22.1495 9.62033C22.4141 9.64339 22.6792 9.6601 22.945 9.6702C22.9204 10.1105 22.8312 10.5385 22.6777 10.9544C22.6479 11.0235 22.6153 11.0901 22.5799 11.1539C21.9443 11.1194 21.3096 11.0779 20.6757 11.0292C20.5257 10.4849 20.304 9.96944 20.0106 9.48317Z" fill="#00B8FA"/>
    <path fill-rule="evenodd" clip-rule="evenodd" d="M23.5971 9.72007H23.558C23.5388 9.67182 23.5323 9.62195 23.5384 9.57045C23.5594 9.62008 23.579 9.66995 23.5971 9.72007Z" fill="#00B5FB"/>
    <path fill-rule="evenodd" clip-rule="evenodd" d="M23.558 9.72007H23.5971C23.8074 10.2124 23.9378 10.7236 23.9884 11.2537C23.871 11.2459 23.7536 11.2376 23.6363 11.2287C23.6728 10.7226 23.6467 10.2198 23.558 9.72007Z" fill="#00B9FA"/>
    <path fill-rule="evenodd" clip-rule="evenodd" d="M3.42109 9.89463C3.39213 9.88378 3.36175 9.87966 3.32979 9.88216C3.33866 9.81333 3.37779 9.77805 3.44717 9.77618C3.43504 9.8147 3.4263 9.8541 3.42109 9.89463Z" fill="#00BBFA"/>
    <path fill-rule="evenodd" clip-rule="evenodd" d="M3.32979 9.88216C3.36175 9.87966 3.39213 9.88378 3.42109 9.89463C3.37687 10.1547 3.35079 10.4165 3.34284 10.6801C3.29341 10.6862 3.28467 10.6759 3.31675 10.649C3.29941 10.6468 3.28193 10.6448 3.26458 10.6427C3.21085 10.6622 3.15438 10.6704 3.09504 10.6677C3.15099 10.3996 3.22924 10.1378 3.32979 9.88216Z" fill="#00BDF9"/>
    <path fill-rule="evenodd" clip-rule="evenodd" d="M4.04711 9.93203C4.36024 9.95061 4.67325 9.97143 4.98613 9.99437C5.07717 10.1057 5.19454 10.1411 5.33827 10.1004C5.39709 10.081 5.45369 10.0581 5.50781 10.0318C5.89086 10.052 6.27338 10.0769 6.65551 10.1066C6.53983 10.3594 6.4398 10.6172 6.35555 10.8796C6.33338 10.8816 6.3116 10.8796 6.29034 10.8734C6.32503 10.8487 6.31851 10.8382 6.27077 10.8422C6.23478 10.8536 6.19787 10.8618 6.15992 10.8671C6.11049 10.8721 6.10188 10.8618 6.13383 10.836C6.11649 10.8339 6.09901 10.8319 6.08166 10.8297C6.04371 10.8351 6.0068 10.8433 5.97081 10.8547C5.95555 10.8506 5.94042 10.8463 5.92516 10.8422C5.9279 10.8349 5.9322 10.8286 5.9382 10.8235C5.92294 10.8214 5.90781 10.8194 5.89255 10.8173C5.85656 10.8286 5.81965 10.8368 5.7817 10.8422C5.73227 10.8472 5.72366 10.8368 5.75561 10.811C5.73827 10.8089 5.72079 10.8069 5.70344 10.8048C5.66549 10.8102 5.62858 10.8184 5.59259 10.8297C5.57733 10.8276 5.5622 10.8256 5.54694 10.8235C5.55294 10.8184 5.55724 10.8122 5.55998 10.8048C5.54472 10.8007 5.52959 10.7965 5.51434 10.7923C5.47834 10.8037 5.44143 10.8119 5.40348 10.8173C5.35405 10.8223 5.34544 10.8119 5.37739 10.7861C5.32405 10.7801 5.27188 10.7864 5.22089 10.8048C5.17146 10.8098 5.16285 10.7994 5.19481 10.7736C5.17746 10.7715 5.15998 10.7695 5.14264 10.7674C5.10468 10.7728 5.06778 10.781 5.03178 10.7923C5.01652 10.7882 5.00139 10.784 4.98613 10.7799C4.98887 10.7725 4.99318 10.7663 4.99917 10.7612C4.98392 10.759 4.96879 10.7571 4.95353 10.7549C4.91753 10.7663 4.88062 10.7745 4.84267 10.7799C4.79324 10.7849 4.78463 10.7745 4.81659 10.7487C4.79924 10.7466 4.78176 10.7446 4.76442 10.7425C4.72647 10.7478 4.68956 10.7561 4.65356 10.7674C4.6383 10.7653 4.62317 10.7633 4.60791 10.7612C4.61391 10.7561 4.61822 10.7498 4.62096 10.7425C4.6057 10.7384 4.59057 10.7341 4.57531 10.73C4.53931 10.7413 4.5024 10.7496 4.46445 10.7549C4.41502 10.7599 4.40641 10.7496 4.43837 10.7238C4.42102 10.7216 4.40354 10.7196 4.3862 10.7175C4.34107 10.7351 4.29321 10.7435 4.24274 10.7425C4.13618 10.483 4.07097 10.2128 4.04711 9.93203Z" fill="#00BDF9"/>
    <path fill-rule="evenodd" clip-rule="evenodd" d="M3.34284 10.6801C3.3354 10.9271 3.34844 11.1722 3.38196 11.4157C3.25611 11.4053 3.12999 11.3969 3.00374 11.3908C3.01509 11.1473 3.04561 10.9063 3.09504 10.6677C3.15438 10.6704 3.21085 10.6622 3.26458 10.6427C3.28193 10.6448 3.29941 10.6468 3.31675 10.649C3.28467 10.6759 3.29341 10.6862 3.34284 10.6801Z" fill="#00C0F9"/>
    <path fill-rule="evenodd" clip-rule="evenodd" d="M6.35555 10.8796C6.29503 11.1194 6.24286 11.3604 6.19904 11.6028C5.67775 11.5645 5.15607 11.5313 4.634 11.503C4.46576 11.2686 4.33533 11.0151 4.24274 10.7425C4.29321 10.7435 4.34107 10.7351 4.3862 10.7175C4.40354 10.7196 4.42102 10.7216 4.43837 10.7238C4.40641 10.7496 4.41502 10.7599 4.46445 10.7549C4.5024 10.7496 4.53931 10.7413 4.57531 10.73C4.59057 10.7341 4.6057 10.7384 4.62096 10.7425C4.61822 10.7498 4.61391 10.7561 4.60791 10.7612C4.62317 10.7633 4.6383 10.7653 4.65356 10.7674C4.68956 10.7561 4.72647 10.7478 4.76442 10.7425C4.78176 10.7446 4.79924 10.7466 4.81659 10.7487C4.78463 10.7745 4.79324 10.7849 4.84267 10.7799C4.88062 10.7745 4.91753 10.7663 4.95353 10.7549C4.96879 10.7571 4.98392 10.759 4.99917 10.7612C4.99318 10.7663 4.98887 10.7725 4.98613 10.7799C5.00139 10.784 5.01652 10.7882 5.03178 10.7923C5.06778 10.781 5.10468 10.7728 5.14264 10.7674C5.15998 10.7695 5.17746 10.7715 5.19481 10.7736C5.16285 10.7994 5.17146 10.8098 5.22089 10.8048C5.27188 10.7864 5.32405 10.7801 5.37739 10.7861C5.34544 10.8119 5.35405 10.8223 5.40348 10.8173C5.44143 10.8119 5.47834 10.8037 5.51434 10.7923C5.52959 10.7965 5.54472 10.8007 5.55998 10.8048C5.55724 10.8122 5.55294 10.8184 5.54694 10.8235C5.5622 10.8256 5.57733 10.8276 5.59259 10.8297C5.62858 10.8184 5.66549 10.8102 5.70344 10.8048C5.72079 10.8069 5.73827 10.8089 5.75561 10.811C5.72366 10.8368 5.73227 10.8472 5.7817 10.8422C5.81965 10.8368 5.85656 10.8286 5.89255 10.8173C5.90781 10.8194 5.92294 10.8214 5.9382 10.8235C5.9322 10.8286 5.9279 10.8349 5.92516 10.8422C5.94042 10.8463 5.95555 10.8506 5.97081 10.8547C6.0068 10.8433 6.04371 10.8351 6.08166 10.8297C6.09901 10.8319 6.11649 10.8339 6.13383 10.836C6.10188 10.8618 6.11049 10.8721 6.15992 10.8671C6.19787 10.8618 6.23478 10.8536 6.27077 10.8422C6.31851 10.8382 6.32503 10.8487 6.29034 10.8734C6.3116 10.8796 6.33338 10.8816 6.35555 10.8796Z" fill="#00BFF9"/>
    <path fill-rule="evenodd" clip-rule="evenodd" d="M20.6757 11.0292C21.3096 11.0779 21.9443 11.1194 22.5799 11.1539C22.5549 11.209 22.5268 11.2631 22.4951 11.316C22.3484 11.501 22.2114 11.6922 22.0843 11.8895C22.0357 11.8879 21.9901 11.8961 21.9473 11.9145C21.9321 11.9124 21.9169 11.9104 21.9017 11.9082C21.9077 11.9031 21.912 11.8969 21.9147 11.8895C21.8994 11.8854 21.8843 11.8812 21.8691 11.8771C21.8332 11.8884 21.7962 11.8966 21.7582 11.902C21.7088 11.907 21.7002 11.8966 21.7321 11.8708C21.7148 11.8687 21.6973 11.8667 21.68 11.8646C21.629 11.8831 21.5768 11.8893 21.5234 11.8833C21.5554 11.8575 21.5468 11.8471 21.4974 11.8521C21.4582 11.8605 21.4191 11.8687 21.38 11.8771C21.3306 11.8821 21.3219 11.8717 21.3539 11.8459C21.3386 11.8438 21.3235 11.8418 21.3083 11.8397C21.2724 11.851 21.2353 11.8592 21.1974 11.8646C21.148 11.8696 21.1394 11.8592 21.1713 11.8334C21.154 11.8313 21.1365 11.8293 21.1191 11.8272C21.0812 11.8326 21.0442 11.8408 21.0083 11.8521C20.993 11.85 20.9779 11.848 20.9626 11.8459C20.9686 11.8408 20.9729 11.8346 20.9757 11.8272C20.9604 11.8231 20.9453 11.8188 20.93 11.8147C20.8963 11.8203 20.8636 11.8286 20.8322 11.8397C20.8035 11.5651 20.7514 11.2951 20.6757 11.0292Z" fill="#00BCFA"/>
    <path fill-rule="evenodd" clip-rule="evenodd" d="M23.6363 11.2287C23.7536 11.2376 23.871 11.2459 23.9884 11.2537C24.01 11.5088 24.0014 11.7622 23.9623 12.0142C23.9138 12.0126 23.8681 12.0208 23.8254 12.0392C23.7776 12.0431 23.7711 12.0327 23.8058 12.008C23.7885 12.0059 23.771 12.0039 23.7536 12.0018C23.7145 12.0101 23.6754 12.0183 23.6363 12.0267C23.5868 12.0317 23.5782 12.0213 23.6102 11.9955C23.5669 11.9839 23.5277 11.9902 23.4928 12.0142C23.559 11.755 23.6068 11.4932 23.6363 11.2287Z" fill="#00BDFA"/>
    <path fill-rule="evenodd" clip-rule="evenodd" d="M3.00374 11.3908C3.12999 11.3969 3.25611 11.4053 3.38196 11.4157C3.44704 11.9767 3.63406 12.4961 3.94277 12.9743C3.71662 12.9629 3.4906 12.9505 3.26458 12.9369C3.06726 12.4395 2.98027 11.9242 3.00374 11.3908Z" fill="#00C4F8"/>
    <path fill-rule="evenodd" clip-rule="evenodd" d="M4.634 11.503C5.15607 11.5313 5.67775 11.5645 6.19904 11.6028C6.16435 11.8553 6.14257 12.1087 6.13383 12.3633C6.14166 12.6187 6.16774 12.8722 6.21208 13.1239C5.94642 13.1125 5.68127 13.096 5.41652 13.074C5.28649 12.7047 5.12347 12.3472 4.92744 12.0018C4.82598 11.8368 4.72816 11.6706 4.634 11.503Z" fill="#00C4F8"/>
    <path fill-rule="evenodd" clip-rule="evenodd" d="M22.0843 11.8895C21.9444 12.1276 21.8228 12.3728 21.7191 12.6252C21.4277 12.6103 21.1364 12.5937 20.8453 12.5753C20.8587 12.3299 20.8544 12.0848 20.8322 11.8397C20.8636 11.8286 20.8963 11.8203 20.93 11.8147C20.9453 11.8188 20.9604 11.8231 20.9757 11.8272C20.9729 11.8346 20.9686 11.8408 20.9626 11.8459C20.9779 11.848 20.993 11.85 21.0083 11.8521C21.0442 11.8408 21.0812 11.8326 21.1191 11.8272C21.1365 11.8293 21.154 11.8313 21.1713 11.8334C21.1394 11.8592 21.148 11.8696 21.1974 11.8646C21.2353 11.8592 21.2724 11.851 21.3083 11.8397C21.3235 11.8418 21.3386 11.8438 21.3539 11.8459C21.3219 11.8717 21.3306 11.8821 21.38 11.8771C21.4191 11.8687 21.4582 11.8605 21.4974 11.8521C21.5468 11.8471 21.5554 11.8575 21.5234 11.8833C21.5768 11.8893 21.629 11.8831 21.68 11.8646C21.6973 11.8667 21.7148 11.8687 21.7321 11.8708C21.7002 11.8966 21.7088 11.907 21.7582 11.902C21.7962 11.8966 21.8332 11.8884 21.8691 11.8771C21.8843 11.8812 21.8994 11.8854 21.9147 11.8895C21.912 11.8969 21.9077 11.9031 21.9017 11.9082C21.9169 11.9104 21.9321 11.9124 21.9473 11.9145C21.9901 11.8961 22.0357 11.8879 22.0843 11.8895Z" fill="#00BFF9"/>
    <path fill-rule="evenodd" clip-rule="evenodd" d="M23.9623 12.0142C23.9231 12.2686 23.8621 12.5179 23.7797 12.7623C23.5836 12.7552 23.3879 12.7427 23.1928 12.7249C23.3114 12.4941 23.4114 12.2572 23.4928 12.0142C23.5277 11.9902 23.5669 11.9839 23.6102 11.9955C23.5782 12.0213 23.5868 12.0317 23.6363 12.0267C23.6754 12.0183 23.7145 12.0101 23.7536 12.0018C23.771 12.0039 23.7885 12.0059 23.8058 12.008C23.7711 12.0327 23.7776 12.0431 23.8254 12.0392C23.8681 12.0208 23.9138 12.0126 23.9623 12.0142Z" fill="#00C0F9"/>
    <path fill-rule="evenodd" clip-rule="evenodd" d="M20.8453 12.5753C21.1364 12.5937 21.4277 12.6103 21.7191 12.6252C21.673 12.7674 21.6231 12.9087 21.5691 13.0491C21.4676 13.4083 21.3655 13.7656 21.2626 14.1214C21.0191 14.11 20.7756 14.0975 20.5323 14.0839C20.6935 13.5918 20.7978 13.089 20.8453 12.5753Z" fill="#00C4F8"/>
    <path fill-rule="evenodd" clip-rule="evenodd" d="M23.1928 12.7249C23.3879 12.7427 23.5836 12.7552 23.7797 12.7623C23.6466 13.0916 23.4792 13.4033 23.2776 13.6974C23.1114 13.8958 22.9223 14.0704 22.7103 14.2211C22.3841 14.202 22.058 14.1813 21.7321 14.1588C22.1506 13.9064 22.5203 13.5968 22.8407 13.2299C22.8613 13.221 22.8809 13.2107 22.8994 13.1987C23.0072 13.0466 23.1051 12.8886 23.1928 12.7249Z" fill="#00C4F8"/>
    <path fill-rule="evenodd" clip-rule="evenodd" d="M3.26458 12.9369C3.4906 12.9505 3.71662 12.9629 3.94277 12.9743C4.2816 13.4416 4.70338 13.8261 5.20785 14.1276C5.35001 14.207 5.49999 14.2672 5.6578 14.3084C5.73227 14.3035 5.75835 14.2661 5.73605 14.1962C5.62545 13.8229 5.5189 13.4488 5.41652 13.074C5.68127 13.096 5.94642 13.1125 6.21208 13.1239C6.3219 13.727 6.50449 14.3088 6.75985 14.8694C6.17726 14.8279 5.59481 14.7863 5.01222 14.7448C4.58261 14.4879 4.18913 14.1846 3.83191 13.8346C3.72692 13.7134 3.62689 13.5887 3.53194 13.4605C3.51369 13.4249 3.50064 13.3875 3.49282 13.3483C3.40309 13.2184 3.32705 13.0813 3.26458 12.9369Z" fill="#00CBF7"/>
    <path fill-rule="evenodd" clip-rule="evenodd" d="M20.5323 14.0839C20.7756 14.0975 21.0191 14.11 21.2626 14.1214C21.2224 14.217 21.2507 14.2836 21.3474 14.3208C21.4771 14.2705 21.6055 14.2165 21.7321 14.1588C22.058 14.1813 22.3841 14.202 22.7103 14.2211C22.5156 14.3518 22.3199 14.4827 22.1234 14.6138C21.8385 14.8496 21.5887 15.1136 21.3735 15.4056C21.2755 15.5431 21.1777 15.6803 21.08 15.817C20.6412 15.7852 20.2022 15.7561 19.7628 15.7298C20.09 15.2122 20.3464 14.6636 20.5323 14.0839Z" fill="#00CAF7"/>
    <path fill-rule="evenodd" clip-rule="evenodd" d="M8.55965 14.9817C8.47697 14.9798 8.39428 14.9756 8.31185 14.9692C8.42376 14.6597 8.57374 14.3688 8.76181 14.0964C8.71877 14.2616 8.67534 14.4278 8.63138 14.5951C8.60178 14.7232 8.57791 14.852 8.55965 14.9817Z" fill="#00CDF7"/>
    <path fill-rule="evenodd" clip-rule="evenodd" d="M18.8368 15.6674C18.7152 15.6579 18.5934 15.6496 18.4716 15.6425C18.4721 15.1218 18.3851 14.6147 18.2108 14.1214C18.2151 14.1172 18.2195 14.113 18.2238 14.1089C18.3838 14.2857 18.5077 14.4852 18.5955 14.7074C18.7167 15.0184 18.7971 15.3384 18.8368 15.6674Z" fill="#00CBF7"/>
    <path fill-rule="evenodd" clip-rule="evenodd" d="M5.01222 14.7448C5.59481 14.7863 6.17726 14.8279 6.75985 14.8694C6.99878 15.4129 7.31609 15.9076 7.71192 16.3532C7.21554 16.3259 6.71994 16.2926 6.22513 16.2534C6.14622 16.1651 6.07006 16.0738 5.99689 15.9791C5.76761 15.6695 5.54159 15.3578 5.3187 15.044C5.22258 14.9376 5.12047 14.8379 5.01222 14.7448Z" fill="#00D1F6"/>
    <path fill-rule="evenodd" clip-rule="evenodd" d="M8.31185 14.9692C8.39428 14.9756 8.47697 14.9798 8.55965 14.9817C8.47971 15.4629 8.49705 15.9408 8.61182 16.4155C8.44554 16.4074 8.28042 16.3949 8.11622 16.3781C8.08623 15.8966 8.15144 15.4269 8.31185 14.9692Z" fill="#00D1F5"/>
    <path fill-rule="evenodd" clip-rule="evenodd" d="M16.8153 15.5303C16.7498 15.5289 16.6846 15.5247 16.6196 15.5178C16.6206 15.3511 16.6183 15.1849 16.6131 15.0191C16.6971 15.183 16.7645 15.3535 16.8153 15.5303Z" fill="#00CDF7"/>
    <path fill-rule="evenodd" clip-rule="evenodd" d="M10.3725 15.1063H10.3334C10.3772 15.0095 10.3902 15.0095 10.3725 15.1063Z" fill="#00CEF7"/>
    <path fill-rule="evenodd" clip-rule="evenodd" d="M10.3334 15.1063H10.3725C10.3593 15.3015 10.3572 15.4968 10.366 15.6923C10.397 15.9766 10.4382 16.2592 10.4899 16.5402C10.3465 16.5307 10.2031 16.5225 10.0595 16.5153C10.0453 16.0262 10.1366 15.5566 10.3334 15.1063Z" fill="#00D2F5"/>
    <path fill-rule="evenodd" clip-rule="evenodd" d="M16.6196 15.5178C16.6846 15.5247 16.7498 15.5289 16.8153 15.5303C16.8904 15.7805 16.9122 16.034 16.8805 16.2908C16.8987 16.5154 16.8943 16.7398 16.8674 16.9641C16.7018 16.954 16.5366 16.9415 16.3718 16.9267C16.4514 16.6807 16.5188 16.4313 16.574 16.1786C16.5952 15.9587 16.6105 15.7384 16.6196 15.5178Z" fill="#00D1F5"/>
    <path fill-rule="evenodd" clip-rule="evenodd" d="M18.4716 15.6425C18.5934 15.6496 18.7152 15.6579 18.8368 15.6674C18.8485 15.8376 18.8573 16.008 18.8629 16.1786C18.8537 16.3951 18.8429 16.6113 18.8303 16.827C18.8916 16.7872 18.9482 16.7414 18.9998 16.6898C19.2797 16.3868 19.534 16.0669 19.7628 15.7298C20.2022 15.7561 20.6412 15.7852 21.08 15.817C20.7414 16.2988 20.3589 16.7477 19.9323 17.1636C19.3281 17.1257 18.7238 17.0883 18.1195 17.0514C18.3495 16.6081 18.4669 16.1385 18.4716 15.6425Z" fill="#00D1F6"/>
    <path fill-rule="evenodd" clip-rule="evenodd" d="M6.22513 16.2534C6.71994 16.2926 7.21554 16.3259 7.71192 16.3532C7.84195 16.5045 7.98763 16.6417 8.14883 16.7646C8.1384 16.6362 8.12757 16.5074 8.11622 16.3781C8.28042 16.3949 8.44554 16.4074 8.61182 16.4155C8.70442 16.8377 8.88479 17.22 9.15307 17.5626C9.26184 17.6851 9.37269 17.8057 9.48564 17.9242C8.93357 17.8861 8.3815 17.8487 7.8293 17.8119C7.53337 17.6086 7.25727 17.38 7.00113 17.1262C6.72998 16.8442 6.47123 16.5533 6.22513 16.2534Z" fill="#00D7F4"/>
    <path fill-rule="evenodd" clip-rule="evenodd" d="M10.0595 16.5153C10.2031 16.5225 10.3465 16.5307 10.4899 16.5402C10.6419 17.0637 10.8549 17.5625 11.1289 18.0364C10.9077 18.0168 10.686 18.0002 10.4638 17.9865C10.2313 17.5214 10.0965 17.0311 10.0595 16.5153Z" fill="#00D7F4"/>
    <path fill-rule="evenodd" clip-rule="evenodd" d="M16.3718 16.9267C16.5366 16.9415 16.7018 16.954 16.8674 16.9641C16.7665 17.4686 16.5753 17.9381 16.2936 18.373C16.072 18.3576 15.8503 18.3451 15.6284 18.3356C15.9417 17.8989 16.1895 17.4292 16.3718 16.9267Z" fill="#00D7F4"/>
    <path fill-rule="evenodd" clip-rule="evenodd" d="M18.1195 17.0514C18.7238 17.0883 19.3281 17.1257 19.9323 17.1636C19.6723 17.4268 19.3941 17.6699 19.0976 17.893C18.894 18.0253 18.694 18.1624 18.4977 18.3044C18.3927 18.3754 18.2839 18.4398 18.1716 18.4977C17.7281 18.4698 17.2847 18.4406 16.8414 18.4104C17.4023 18.0735 17.8284 17.6204 18.1195 17.0514Z" fill="#00D7F4"/>
    <path fill-rule="evenodd" clip-rule="evenodd" d="M7.8293 17.8119C8.3815 17.8487 8.93357 17.8861 9.48564 17.9242C9.80204 18.2001 10.1497 18.4327 10.529 18.6224C9.95046 18.5888 9.3723 18.5514 8.79441 18.5102C8.57713 18.3837 8.36846 18.2445 8.16839 18.0925C8.05284 18.0007 7.93976 17.9072 7.8293 17.8119Z" fill="#00DBF3"/>
    <path fill-rule="evenodd" clip-rule="evenodd" d="M10.4638 17.9865C10.686 18.0002 10.9077 18.0168 11.1289 18.0364C11.278 18.2672 11.4431 18.4875 11.6245 18.6972C11.3679 18.6824 11.1115 18.6658 10.8551 18.6473C10.7082 18.4372 10.5778 18.2169 10.4638 17.9865Z" fill="#00DBF3"/>
    <path fill-rule="evenodd" clip-rule="evenodd" d="M15.6284 18.3356C15.8503 18.3451 16.072 18.3576 16.2936 18.373C16.2206 18.5022 16.1423 18.629 16.0588 18.7533C16.3334 18.6699 16.5942 18.5556 16.8414 18.4104C17.2847 18.4406 17.7281 18.4698 18.1716 18.4977C17.8344 18.7068 17.4822 18.8938 17.1152 19.0588C16.4457 19.0177 15.7762 18.9762 15.1068 18.9341C15.2957 18.7452 15.4697 18.5457 15.6284 18.3356Z" fill="#00DBF3"/>
    <path fill-rule="evenodd" clip-rule="evenodd" d="M8.79441 18.5102C9.3723 18.5514 9.95046 18.5888 10.529 18.6224C10.6674 18.6844 10.8065 18.7467 10.9463 18.8094C10.9507 18.8073 10.9551 18.8053 10.9594 18.8032C10.9195 18.7537 10.8847 18.7017 10.8551 18.6473C11.1115 18.6658 11.3679 18.6824 11.6245 18.6972C11.7985 18.8947 11.9984 19.063 12.2245 19.2022C12.2999 19.245 12.3781 19.2825 12.4592 19.3144C12.5188 19.3472 12.5384 19.395 12.5179 19.4578C12.5015 19.4934 12.4819 19.5266 12.4592 19.5575C11.8242 19.5198 11.1895 19.4782 10.5551 19.4328C10.1689 19.244 9.78195 19.0549 9.39434 18.8655C9.18698 18.7562 8.98704 18.6377 8.79441 18.5102Z" fill="#00DEF3"/>
    <path fill-rule="evenodd" clip-rule="evenodd" d="M15.1068 18.9341C15.7762 18.9762 16.4457 19.0177 17.1152 19.0588C16.8407 19.1837 16.5713 19.3189 16.3066 19.464C16.1536 19.5584 16.0102 19.6644 15.8762 19.7819C15.4631 19.76 15.05 19.735 14.6372 19.7071C14.5574 19.6296 14.49 19.5423 14.4351 19.4453C14.4183 19.3944 14.4334 19.3549 14.4807 19.3268C14.7139 19.2301 14.9226 19.0992 15.1068 18.9341Z" fill="#00DEF3"/>
    <path fill-rule="evenodd" clip-rule="evenodd" d="M10.5551 19.4328C11.1895 19.4782 11.8242 19.5198 12.4592 19.5575C12.2974 19.7848 12.08 19.9449 11.8071 20.0375C11.6947 20.0789 11.5795 20.1101 11.4615 20.131C11.4315 20.1312 11.4032 20.1249 11.3767 20.1123C11.1441 19.8377 10.8702 19.6112 10.5551 19.4328Z" fill="#00E1F2"/>
    <path fill-rule="evenodd" clip-rule="evenodd" d="M9.7204 19.4827C9.76343 19.4806 9.76774 19.4889 9.73344 19.5076C9.723 19.5019 9.7187 19.4937 9.7204 19.4827Z" fill="#00E1F2"/>
    <path fill-rule="evenodd" clip-rule="evenodd" d="M14.6372 19.7071C15.05 19.735 15.4631 19.76 15.8762 19.7819C15.7741 19.89 15.6741 20.0001 15.5763 20.1123C15.5519 20.1246 15.5258 20.1308 15.498 20.131C15.2187 20.0827 14.9666 19.9767 14.7416 19.8131C14.7042 19.7794 14.6693 19.744 14.6372 19.7071Z" fill="#00E1F2"/>
    <path fill-rule="evenodd" clip-rule="evenodd" d="M10.7898 21.4527C11.3475 21.4204 11.8061 21.6074 12.1658 22.0137C12.2787 22.1464 12.3786 22.2878 12.4657 22.4377C12.4745 22.4585 12.4745 22.4792 12.4657 22.5C12.2015 22.3112 11.9081 22.2551 11.5854 22.3317C11.2094 22.3943 10.8986 22.2883 10.6529 22.0137C10.5899 21.9265 10.5268 21.8392 10.4638 21.7519C10.4989 21.7014 10.5272 21.6473 10.5486 21.5898C10.6069 21.5069 10.6873 21.4613 10.7898 21.4527Z" fill="#00EAF0"/>
    <path fill-rule="evenodd" clip-rule="evenodd" d="M16.3588 21.5025C16.1825 21.4971 16.0085 21.4846 15.8371 21.4651C15.9671 21.4519 16.0976 21.4498 16.2284 21.4589C16.2773 21.4626 16.3207 21.4772 16.3588 21.5025Z" fill="#00E7F0"/>
    <path fill-rule="evenodd" clip-rule="evenodd" d="M15.8371 21.4651C16.0085 21.4846 16.1825 21.4971 16.3588 21.5025C16.3879 21.5116 16.4119 21.5282 16.4305 21.5524C16.4639 21.6205 16.501 21.6869 16.5414 21.7519C16.4444 21.906 16.327 22.0452 16.1892 22.1696C15.9572 22.3221 15.7007 22.3761 15.4198 22.3317C15.0975 22.2572 14.8041 22.3134 14.5394 22.5C14.5307 22.4792 14.5307 22.4585 14.5394 22.4377C14.7459 22.0574 15.0481 21.7685 15.4459 21.5711C15.5718 21.5202 15.7023 21.485 15.8371 21.4651Z" fill="#00E9F0"/>
  </g>
</svg>