<svg xmlns="http://www.w3.org/2000/svg" width="13" height="13" viewBox="0 0 13 13" fill="none">
  <path d="M12.762 1.38702C13.0793 1.06972 13.0793 0.555277 12.762 0.237976C12.4447 -0.0793253 11.9303 -0.0793253 11.613 0.237976L6.5 5.35095L1.38702 0.237976C1.06972 -0.0793253 0.555277 -0.0793253 0.237976 0.237976C-0.0793253 0.555277 -0.0793253 1.06972 0.237976 1.38702L5.35095 6.5L0.237976 11.613C-0.0793253 11.9303 -0.0793253 12.4447 0.237976 12.762C0.555277 13.0793 1.06972 13.0793 1.38702 12.762L6.5 7.64905L11.613 12.762C11.9303 13.0793 12.4447 13.0793 12.762 12.762C13.0793 12.4447 13.0793 11.9303 12.762 11.613L7.64905 6.5L12.762 1.38702Z" fill="white"/>
</svg>
