<svg width="64" height="64" viewBox="0 0 64 64" fill="none" xmlns="http://www.w3.org/2000/svg">
<circle cx="32" cy="32" r="32" fill="#FF0012"/>
<path fill-rule="evenodd" clip-rule="evenodd" d="M17.1304 18C15.4015 18 14 19.4222 14 21.1765V41.8235C14 43.5778 15.4015 45 17.1304 45H46.8696C48.5985 45 50 43.5778 50 41.8235V21.1765C50 19.4222 48.5985 18 46.8696 18H17.1304ZM37.7763 21.6307C37.1795 21.0251 36.2118 21.0251 35.615 21.6307L26.9694 30.4034C26.3725 31.009 26.3725 31.991 26.9694 32.5966L35.615 41.3693C36.2118 41.9749 37.1795 41.9749 37.7763 41.3693L42.6395 36.4347C42.9379 36.1318 42.9379 35.6409 42.6395 35.3381L40.4781 33.1449C40.1797 32.8421 39.6958 32.8421 39.3974 33.1449L37.5062 35.0639C37.0585 35.5181 36.3328 35.5181 35.8851 35.0639L33.1834 32.3224C32.7357 31.8682 32.7357 31.1318 33.1834 30.6776L35.8851 27.9361C36.3328 27.4819 37.0585 27.4819 37.5062 27.9361L39.3974 29.8551C39.6958 30.1579 40.1797 30.1579 40.4781 29.8551L42.6395 27.6619C42.9379 27.3591 42.9379 26.8682 42.6395 26.5653L37.7763 21.6307Z" fill="white"/>
</svg>
