<svg width="45" height="46" viewBox="0 0 45 46" fill="none" xmlns="http://www.w3.org/2000/svg">
<path fill-rule="evenodd" clip-rule="evenodd" d="M11.3478 2C10.0512 2 9 3.05345 9 4.35294V19.6471C9 20.9466 10.0512 22 11.3478 22H33.6522C34.9488 22 36 20.9466 36 19.6471V4.35294C36 3.05345 34.9488 2 33.6522 2H11.3478ZM26.8323 4.68941C26.3845 4.24079 25.6589 4.24079 25.2112 4.68941L18.727 11.1877C18.2794 11.6363 18.2794 12.3637 18.727 12.8123L25.2112 19.3106C25.6589 19.7592 26.3845 19.7592 26.8323 19.3106L30.4797 15.6553C30.7033 15.431 30.7033 15.0673 30.4797 14.843L28.8585 13.2184C28.6349 12.9941 28.2718 12.9941 28.0479 13.2184L26.6295 14.6399C26.2938 14.9764 25.7497 14.9764 25.4139 14.6399L23.3875 12.6092C23.0518 12.2728 23.0518 11.7272 23.3875 11.3908L25.4139 9.36006C25.7497 9.02359 26.2938 9.02359 26.6295 9.36006L28.0479 10.7816C28.2718 11.0059 28.6349 11.0059 28.8585 10.7816L30.4797 9.157C30.7033 8.93268 30.7033 8.569 30.4797 8.34471L26.8323 4.68941Z" fill="#FF0012"/>
<path fill-rule="evenodd" clip-rule="evenodd" d="M22.8871 35.0562V42.847H24.2007V35.0562H22.8871ZM21.4166 39.3772V41.5485C21.4166 41.9741 21.4393 42.5524 21.5299 42.847H20.1936C20.1483 42.6178 20.137 42.356 20.137 42.0941V41.9305H20.1256C19.9218 42.4433 19.3896 42.9888 18.2684 42.9888C16.9548 42.9888 16.2074 42.2033 16.2074 41.3085C16.2074 39.8548 17.7797 39.6577 18.7185 39.5403C18.8366 39.5256 18.9448 39.5119 19.0385 39.4972C19.8086 39.3772 20.1256 39.268 20.1256 38.7988C20.1256 38.3296 19.7066 38.024 18.9932 38.024C18.359 38.024 17.9061 38.3624 17.8721 38.9298H16.5924C16.6491 38.0022 17.4078 37.0421 18.9706 37.0421C20.9184 37.0421 21.4166 38.166 21.4166 39.3772ZM18.5969 42.0614C19.4009 42.0614 20.1596 41.5049 20.1596 40.2501V39.6609C20.0237 39.9991 19.6953 40.2609 18.7328 40.4247C17.9287 40.5665 17.5097 40.7847 17.5097 41.2867C17.5097 41.7341 17.9174 42.0614 18.5969 42.0614ZM10.2048 42.847H8.67601L7 37.2057H8.3476L9.11765 40.1627C9.19997 40.4802 9.25736 40.7573 9.31751 41.0479C9.35664 41.237 9.39696 41.4317 9.44606 41.6469H9.45739C9.52397 41.3901 9.57425 41.1545 9.62553 40.914C9.67891 40.6639 9.73336 40.4085 9.80844 40.1191L10.5672 37.2057H12.1186L12.8773 40.1301C12.9455 40.3928 13.0103 40.6784 13.0754 40.9654C13.1292 41.2029 13.1833 41.4413 13.2397 41.6687H13.251C13.3053 41.4435 13.3597 41.1986 13.4152 40.9478C13.4755 40.6757 13.5373 40.397 13.6021 40.1301L14.3382 37.2057H15.6858L13.9985 42.847H12.4697L11.677 39.9009C11.5524 39.4318 11.4278 38.9298 11.3486 38.5152H11.3146C11.2127 38.9844 11.1221 39.399 10.9975 39.89L10.2048 42.847ZM25.7651 42.847V35.0562H27.0788V42.847H25.7651ZM34.056 40.1301C34.0447 38.537 33.2295 37.0531 31.2364 37.0531C29.5264 37.0531 28.2806 38.2968 28.2806 40.01C28.2806 41.7887 29.4811 42.9998 31.2364 42.9998C32.6178 42.9998 33.6259 42.3233 33.9768 41.1775H32.6746C32.4594 41.7451 31.9045 41.9851 31.2364 41.9851C30.3191 41.9851 29.6396 41.3959 29.549 40.3701H34.056V40.1301ZM29.5717 39.4536C29.7075 38.5916 30.3191 38.035 31.2251 38.035C32.1309 38.035 32.6633 38.5696 32.7539 39.4536H29.5717ZM38 37.2057V38.1878H36.8563V40.9047C36.8563 41.4723 37.0261 41.8759 37.5244 41.8759H37.8755V42.847H37.2525C35.973 42.847 35.554 42.0505 35.554 41.0575V38.1878H34.648V37.2057H35.554V35.9399L36.811 35.3289H36.8563V37.2057H38Z" fill="#FF0012"/>
<path fill-rule="evenodd" clip-rule="evenodd" d="M22.0968 29.8289H23.066C22.9939 28.5775 22.1609 28 20.9995 28C19.9662 28 18.941 28.5454 18.957 29.6444C18.9731 30.7674 19.9422 31.1042 20.8873 31.3611C20.9432 31.3765 20.9986 31.3911 21.0532 31.4058C21.7104 31.5828 22.257 31.7301 22.257 32.3076C22.257 32.9012 21.6963 33.19 21.0555 33.19C20.3107 33.19 19.766 32.7726 19.742 32.0028H18.7488C18.8129 33.3663 19.7901 34 21.0555 34C22.1048 34 23.2181 33.4705 23.2181 32.2994C23.2181 31.1129 22.245 30.8486 21.3046 30.5932L21.2077 30.5668C20.4629 30.3663 19.9262 30.1497 19.9262 29.6364C19.9262 29.0508 20.4228 28.8102 20.9835 28.8102C21.6723 28.8102 22.0247 29.147 22.0968 29.8289ZM11.5895 32.107H12.5506C12.2863 33.1739 11.3412 33.9678 9.90747 33.9678C8.12132 33.9678 7 32.7006 7 31C7 29.3155 8.12935 28.0321 9.91549 28.0321C11.3572 28.0321 12.1982 28.7781 12.5506 29.893H11.5895C11.2851 29.2032 10.7885 28.8503 9.91549 28.8503C8.69803 28.8503 7.96917 29.8048 7.96917 31C7.96917 32.1951 8.69803 33.1499 9.91549 33.1499C10.8526 33.1499 11.3572 32.7325 11.5895 32.107ZM18.4287 33.8635H17.4115L16.8428 32.3076H14.4479L13.8793 33.8635H12.8701L15.0487 28.1364H16.2581L18.4287 33.8635ZM15.6574 28.9946H15.6334L14.7283 31.5295H16.5625L15.6574 28.9946ZM24.1131 28.1364H26.1556C27.3969 28.1364 28.1821 28.8904 28.1821 29.9011C28.1821 30.9358 27.3331 31.714 26.1556 31.714H25.0823V33.8635H24.1131V28.1364ZM25.0823 30.9037H26.0755C26.7962 30.9037 27.2127 30.5508 27.2127 29.9091C27.2127 29.2674 26.7962 28.9465 26.0755 28.9465H25.0823V30.9037ZM29.8302 33.0456V31.369H32.3773V30.5588H29.8302V28.9546H32.5455V28.1364H28.8608V33.8635H32.5695V33.0456H29.8302ZM34.4999 33.8635H33.5305V28.1364H35.7093C37.0149 28.1364 37.7276 28.8262 37.7276 29.7647C37.7276 30.5027 37.2553 31.1042 36.5824 31.2726C37.0707 31.4331 37.2553 31.8584 37.4555 32.524C37.4763 32.5885 37.4956 32.6504 37.5146 32.71C37.6484 33.1334 37.7473 33.4461 38 33.7832V33.8635H36.9588C36.7713 33.619 36.6765 33.2856 36.5802 32.9463C36.5404 32.8075 36.5007 32.6672 36.454 32.5322C36.2698 32.0027 36.0455 31.6176 35.349 31.6176H34.4999V33.8635ZM34.4999 28.9305V30.8155H35.6611C36.3822 30.8155 36.7666 30.4305 36.7666 29.8369C36.7666 29.3315 36.446 28.9305 35.6291 28.9305H34.4999Z" fill="#FF0012"/>
</svg>
