<svg width="36" height="27" viewBox="0 0 36 27" fill="none" xmlns="http://www.w3.org/2000/svg">
<path fill-rule="evenodd" clip-rule="evenodd" d="M3.13043 0C1.40154 0 0 1.42215 0 3.17647V23.8235C0 25.5778 1.40154 27 3.13043 27H32.8696C34.5985 27 36 25.5778 36 23.8235V3.17647C36 1.42215 34.5985 0 32.8696 0H3.13043ZM23.7763 3.63069C23.1795 3.02506 22.2118 3.02506 21.615 3.63069L12.9694 12.4034C12.3725 13.009 12.3725 13.991 12.9694 14.5966L21.615 23.3693C22.2118 23.9749 23.1795 23.9749 23.7763 23.3693L28.6395 18.4347C28.9379 18.1318 28.9379 17.6409 28.6395 17.3381L26.4781 15.1449C26.1797 14.8421 25.6958 14.8421 25.3974 15.1449L23.5062 17.0639C23.0585 17.5181 22.3328 17.5181 21.8851 17.0639L19.1834 14.3224C18.7357 13.8682 18.7357 13.1318 19.1834 12.6776L21.8851 9.93608C22.3328 9.48186 23.0585 9.48186 23.5062 9.93608L25.3974 11.8551C25.6958 12.1579 26.1797 12.1579 26.4781 11.8551L28.6395 9.66194C28.9379 9.35912 28.9379 8.86816 28.6395 8.56535L23.7763 3.63069Z" fill="white"/>
</svg>
