<svg xmlns="http://www.w3.org/2000/svg" width="27" height="27" viewBox="0 0 27 27" fill="none">
  <path d="M0 13.5C0 6.04416 6.04416 0 13.5 0C20.9558 0 27 6.04416 27 13.5C27 20.9558 20.9558 27 13.5 27C6.04416 27 0 20.9558 0 13.5Z" fill="white"/>
  <path d="M13.5 0.5C20.6797 0.5 26.5 6.3203 26.5 13.5C26.5 20.6797 20.6797 26.5 13.5 26.5C6.3203 26.5 0.5 20.6797 0.5 13.5C0.5 6.3203 6.3203 0.5 13.5 0.5Z" stroke="black" stroke-opacity="0.5"/>
  <path fill-rule="evenodd" clip-rule="evenodd" d="M6.47826 7.5C5.66184 7.5 5 8.18474 5 9.02941V18.9706C5 19.8153 5.66184 20.5 6.47826 20.5H20.5217C21.3381 20.5 22 19.8153 22 18.9706V9.02941C22 8.18474 21.3381 7.5 20.5217 7.5H6.47826ZM16.2278 9.24812C15.9458 8.95651 15.4889 8.95651 15.2071 9.24812L11.1244 13.472C10.8426 13.7636 10.8426 14.2364 11.1244 14.528L15.2071 18.7519C15.4889 19.0435 15.9458 19.0435 16.2278 18.7519L18.5242 16.3759C18.665 16.2302 18.665 15.9938 18.5242 15.8479L17.5035 14.792C17.3627 14.6462 17.1341 14.6462 16.9931 14.792L16.1001 15.716C15.8887 15.9347 15.5461 15.9347 15.3347 15.716L14.0588 14.396C13.8474 14.1773 13.8474 13.8227 14.0588 13.604L15.3347 12.284C15.5461 12.0653 15.8887 12.0653 16.1001 12.284L16.9931 13.208C17.1341 13.3538 17.3627 13.3538 17.5035 13.208L18.5242 12.1521C18.665 12.0062 18.665 11.7699 18.5242 11.6241L16.2278 9.24812Z" fill="#FF0012"/>
</svg>
