<svg width="40" height="34" viewBox="0 0 40 34" fill="none" xmlns="http://www.w3.org/2000/svg">
<path d="M39.743 24.9182C31.0386 18.6798 25.9882 9.875 25.7795 0.594216C25.7725 0.263916 25.496 0 25.1516 0L14.8559 0C14.5116 0 14.235 0.263916 14.2281 0.594216C14.0194 9.87176 8.96022 18.6798 0.255829 24.9182C-0.020694 25.1158 -0.0833032 25.4882 0.118437 25.7553L6.14108 33.7489C6.34629 34.0209 6.7463 34.0824 7.0263 33.8817C12.4698 30.0055 16.8472 25.3343 20.0003 20.1515C23.1534 25.3343 27.5325 30.0055 32.9743 33.8817C33.2543 34.0824 33.6543 34.0209 33.8595 33.7489L39.8822 25.7553C40.0839 25.4882 40.0196 25.1158 39.743 24.9182Z" fill="white"/>
</svg>
