<svg width="35" height="26" viewBox="0 0 35 26" fill="none" xmlns="http://www.w3.org/2000/svg">
<path fill-rule="evenodd" clip-rule="evenodd" d="M3.04348 0C1.3626 0 0 1.36948 0 3.05882V22.9412C0 24.6305 1.3626 26 3.04348 26H31.9565C33.6373 26 35 24.6305 35 22.9412V3.05882C35 1.36948 33.6373 0 31.9565 0H3.04348ZM23.116 3.49624C22.5354 2.91302 21.5948 2.91302 21.0145 3.49624L12.6091 11.944C12.0289 12.5272 12.0289 13.4728 12.6091 14.056L21.0145 22.5038C21.5948 23.087 22.5354 23.087 23.116 22.5038L27.844 17.7519C28.1339 17.4603 28.1339 16.9875 27.844 16.6959L25.7425 14.584C25.4526 14.2924 24.982 14.2924 24.6917 14.584L22.8531 16.4319C22.4179 16.8693 21.7126 16.8693 21.2772 16.4319L18.6505 13.792C18.2153 13.3546 18.2153 12.6454 18.6505 12.208L21.2772 9.56808C21.7126 9.13066 22.4179 9.13066 22.8531 9.56808L24.6917 11.416C24.982 11.7076 25.4526 11.7076 25.7425 11.416L27.844 9.3041C28.1339 9.01248 28.1339 8.5397 27.844 8.24812L23.116 3.49624Z" fill="white"/>
</svg>
