<svg width="43" height="38" viewBox="0 0 43 38" fill="none" xmlns="http://www.w3.org/2000/svg">
<path d="M8.11359 0.002542V0C8.14195 0.00762633 8.17031 0.0152526 8.19839 0.0228789C8.17003 0.0177947 8.13909 0.0101682 8.11101 0.00508401L8.11359 0.002542ZM30.1989 0.256471L30.1602 0.251386C30.1602 0.286976 30.1602 0.322565 30.1577 0.357872C30.1705 0.324825 30.186 0.289235 30.1989 0.256471ZM42.0535 10.7257C42.3443 12.1137 42.3985 13.5068 42.1822 14.9075C41.9839 16.1839 41.4822 17.3434 40.7459 18.4091C40.5941 18.4371 40.5503 18.5766 40.4629 18.6704C39.7191 19.457 38.9264 20.1826 37.9124 20.6165C37.7632 20.6801 37.5752 20.8247 37.4182 20.675C37.2896 20.5507 37.3847 20.3705 37.4259 20.2157C37.6062 19.5381 37.7915 18.8608 37.974 18.1831C38.3677 16.9652 38.8361 15.7879 39.6418 14.76C40.0535 14.2347 40.3162 13.6206 40.4935 12.9814C41.3788 9.79954 40.6222 6.90691 38.8619 4.20211C38.1978 3.18215 37.279 2.37772 36.4117 1.53543C35.9227 1.06091 35.413 0.604174 34.9113 0.139816C34.8907 0.248844 34.9294 0.307313 34.968 0.365781C35.8688 1.67242 36.8572 2.92342 37.6781 4.28345C38.692 5.96576 39.279 7.77235 39.302 9.73882C39.3097 10.297 39.2684 10.8554 39.0447 11.3779C38.8387 11.8626 38.4657 11.992 38.0024 11.746C37.8325 11.6573 37.6703 11.5454 37.5288 11.4211C36.5429 10.5509 35.8585 9.48771 35.4568 8.24688C35.4027 7.91697 35.3462 7.58706 35.2921 7.2597C35.3179 5.26781 34.7259 3.54991 33.0786 2.27123C32.2394 1.61904 31.3747 1.00244 30.4869 0.413799C30.3814 0.345162 30.2809 0.302228 30.1574 0.35533C31.1252 1.04537 31.9718 1.86252 32.7594 2.74039C33.7581 3.85694 34.3165 5.14833 34.332 6.65044C34.3088 6.70382 34.2779 6.75438 34.2624 6.81031C34.1286 7.34302 34.1157 7.35573 33.6318 7.10717C33.0012 6.78235 32.3809 6.4321 31.7555 6.09993C31.0452 5.72172 30.4737 5.1585 29.8202 4.7094C29.0996 3.9736 28.4896 3.15899 27.9903 2.25824C28.2169 3.25785 28.6544 4.15381 29.2618 4.97321C29.617 5.54151 30.0958 6.00333 30.6439 6.38154C31.8483 7.20885 33.0195 8.06893 33.959 9.19565C34.2369 9.60663 34.5354 10.0077 34.7904 10.4314C36.1519 12.6922 36.7928 15.123 36.5097 17.7595C36.4917 17.8306 36.4659 17.899 36.4556 17.9702C35.9717 20.8374 34.8778 23.4281 32.8935 25.6129C32.7442 25.7778 32.6027 25.958 32.3683 26.0696C32.6797 23.7631 32.2087 21.4947 31.1664 20.2996C31.9747 22.842 31.9824 25.2677 30.3788 27.5161C29.4446 28.8001 28.1859 29.6399 26.6855 30.1703C27.7098 28.5439 28.5954 26.8947 28.4177 24.9028C28.4229 24.8141 28.4306 24.7251 28.4358 24.639C28.4461 24.6161 28.459 24.5957 28.4667 24.5703C28.4667 24.5627 28.4513 24.5525 28.4409 24.5424C28.459 23.7201 28.194 22.9691 27.8748 22.2257C27.957 23.0352 27.8696 23.8317 27.8129 24.6311C27.4706 26.3919 26.7732 28.0109 25.6948 29.4469C25.1313 30.198 24.5032 30.9185 23.5896 31.2942C23.3117 31.4083 23.4248 31.5682 23.5148 31.7128C23.9781 32.4435 24.6935 32.7988 25.512 32.9943C25.6664 33.0324 25.7719 32.9562 25.8518 32.8421C26.4798 31.9515 27.4038 31.4541 28.3613 31.0024C29.8978 30.2743 31.3827 29.4622 32.7187 28.4066C32.7832 28.3711 32.8525 28.3431 32.9092 28.3002C34.5692 27.0085 35.9513 25.4609 37.1225 23.7328C37.8611 22.6417 38.6255 21.6141 39.7967 20.9012C40.6511 20.3809 41.4158 19.7061 41.902 18.7952C41.9123 18.7774 41.9277 18.7596 41.9329 18.7393C41.9329 18.7367 41.9278 18.7291 41.92 18.7215C42.3962 17.9882 42.656 17.1838 42.8414 16.3288C43.2712 14.3522 42.7666 12.5303 42.0564 10.7237L42.0535 10.7257ZM19.2605 31.2634C18.5732 30.9538 18.0303 30.4564 17.5515 29.8881C16.4422 28.5713 15.7758 27.0362 15.3022 25.4095C15.1452 24.3616 14.9163 23.3188 15.1091 22.2429C14.9676 22.5016 14.8647 22.7606 14.7848 23.0244C14.4708 24.0724 14.3344 25.1355 14.5788 26.219C14.7796 27.7338 15.5079 29.0306 16.3471 30.2813C14.512 29.4921 12.924 28.4493 11.9794 26.663C11.4339 25.4502 11.1789 24.1865 11.2794 22.8569C11.3465 21.9816 11.5086 21.1238 11.7969 20.2891C10.6695 21.9969 10.2423 23.8667 10.5718 25.9578C9.96439 25.5519 8.92467 24.2602 8.39436 23.3416C7.31596 21.469 6.67248 19.4596 6.42552 17.3231C6.36621 16.8155 6.3791 16.3082 6.43067 15.8032C6.44614 15.7828 6.44872 15.7625 6.43841 15.7396C6.66761 13.2351 7.58642 11.0022 9.15875 9.02816C10.0492 8.02346 11.156 7.26732 12.2215 6.46289C12.5561 6.21178 12.9188 5.97057 13.1454 5.59772C14.09 4.57015 14.7516 3.39259 15.0936 2.04527C14.4115 3.37479 13.4388 4.46338 12.3011 5.42006C12.157 5.43531 12.0696 5.54688 11.9639 5.6206C11.1147 6.21941 10.2162 6.72953 9.2616 7.14813C8.83185 7.33596 8.74934 7.2902 8.70063 6.82584C8.66969 6.52136 8.65164 6.21687 8.62843 5.91238C8.64906 5.90729 8.66195 5.89204 8.66195 5.87171C8.66453 5.84374 8.66711 5.81578 8.66969 5.78556C8.76739 4.80854 9.17938 3.95863 9.76613 3.18215C10.4738 2.24835 11.3362 1.46171 12.2292 0.708118C12.363 0.596548 12.4916 0.479894 12.6228 0.365499C12.5971 0.340078 12.5713 0.312115 12.5458 0.286976C11.3542 1.0787 10.1701 1.87551 9.14328 2.88275C8.24509 3.76317 7.83568 4.84413 7.7122 6.05954L7.68641 6.0875C7.68641 6.0875 7.70704 6.11801 7.70704 6.12055C7.71478 6.11038 7.71735 6.09767 7.71735 6.0875C7.71735 6.10021 7.71478 6.11038 7.70704 6.12055C7.70704 6.19907 7.70704 6.27788 7.70446 6.3564C7.52167 6.97555 7.62481 7.63028 7.46781 8.25197C7.23116 9.09425 6.79854 9.84304 6.28398 10.5483C5.96224 10.9898 5.59924 11.4008 5.12078 11.6878C4.50824 12.0533 4.06302 11.8985 3.84929 11.2285C3.76706 10.9647 3.71549 10.6882 3.69228 10.4113C3.53012 8.45505 4.01918 6.63575 4.91995 4.90514C5.71012 3.38778 6.79367 2.06589 7.77924 0.675354C7.92335 0.474809 8.19324 0.319741 8.11101 0.00508401C7.41853 0.66236 6.73952 1.33743 6.029 1.97691C4.19137 3.63126 2.93019 5.61806 2.38211 8.026C1.86984 10.269 1.92399 12.469 3.14907 14.4863C3.80545 15.5698 4.43862 16.6483 4.8529 17.8433C5.09213 18.6856 5.32907 19.5307 5.57346 20.3705C5.67889 20.7309 5.53736 20.8043 5.22077 20.6851C4.81938 20.5354 4.44349 20.3349 4.09081 20.0914C3.14363 19.4367 2.37408 18.6147 1.73834 17.6657C0.59032 15.6105 0.464259 13.4156 0.868514 11.1395C0.706354 11.1649 0.716668 11.2587 0.69604 11.3146C0.135068 12.7433 -0.104448 14.2276 0.0422413 15.7526C0.142517 16.7929 0.412975 17.7928 1.01005 18.6808C1.04615 18.9268 1.22378 19.0943 1.36273 19.2796C1.99074 20.1168 2.8067 20.7512 3.67395 21.3224C4.163 21.6446 4.5876 22.0175 4.92224 22.4971C5.53478 23.3775 6.13443 24.2706 6.82175 25.098C7.75345 26.2221 8.73415 27.298 9.93603 28.1555C11.2511 29.2873 12.7208 30.1881 14.2909 30.929C15.328 31.4188 16.3396 31.9362 17.055 32.8649C17.1476 32.9867 17.2559 33.035 17.4 32.9968C18.2082 32.7887 18.9365 32.4641 19.3998 31.723C19.5362 31.5046 19.5362 31.3854 19.266 31.2662L19.2605 31.2634ZM18.1409 36.4473C17.4665 35.9525 16.7407 35.7646 15.9918 35.8307C15.7242 35.8536 15.5028 35.9398 15.3948 36.2773C15.3741 36.3408 15.3277 36.3863 15.2919 36.4397C15.4438 36.6453 15.5827 36.8685 15.7449 37.0563C16.1978 37.5741 16.7359 37.6958 17.2917 37.6755C17.4925 37.6678 17.6931 37.6348 17.8913 37.6068C18.4062 37.5382 18.9001 37.645 19.3711 38C19.4021 37.9593 19.3763 37.9288 19.3557 37.8961C19.021 37.315 18.6222 36.8024 18.1383 36.4473H18.1409ZM27.0076 35.8282C26.2586 35.7646 25.5329 35.9525 24.8585 36.4473C24.3746 36.8027 23.9758 37.315 23.6412 37.8961C23.6231 37.9291 23.5947 37.9596 23.6257 38C24.0967 37.6447 24.5909 37.5382 25.1055 37.6068C25.3063 37.6322 25.5043 37.6678 25.7051 37.6755C26.2609 37.6933 26.799 37.5715 27.252 37.0538C27.4167 36.8659 27.5556 36.6428 27.7049 36.4372C27.6688 36.3838 27.6227 36.3383 27.6021 36.2748C27.494 35.9372 27.27 35.8511 27.005 35.8282H27.0076Z" fill="black"/>
</svg>
