<svg width="37" height="38" viewBox="0 0 37 38" fill="none" xmlns="http://www.w3.org/2000/svg">
<path d="M18.6378 20.5093L21.3462 17.979L26.3957 19.5771C29.7009 20.6426 31.3536 22.5958 31.3536 25.3481C31.3536 27.4347 30.5273 28.8108 28.8748 30.5865L28.3698 31.1192L28.5534 29.8762C29.2877 25.3481 27.9108 23.3949 23.366 21.9742L18.6378 20.5093ZM11.8436 5.01637L25.6154 9.45562L22.6315 12.208L15.4702 9.89954C12.9914 9.10047 12.165 7.81308 11.8436 5.10516V5.01637ZM11.0173 27.5678L14.1389 24.6822L20.0149 26.5468C23.0905 27.5234 24.1463 28.8108 23.8251 32.0514L11.0173 27.5678ZM7.06948 14.6939C7.06948 13.8506 7.52852 13.0515 8.30892 12.3855C9.13523 13.5398 10.5583 14.5607 12.8076 15.2711L17.6738 16.8248L14.9653 19.3552L10.1911 17.8457C7.98758 17.1356 7.06948 16.07 7.06948 14.6939ZM21.4839 38C31.583 31.5188 37 27.1239 37 21.708C37 18.1122 34.7965 16.1144 29.9305 14.5607L26.2581 13.3621L36.3115 4.03973L34.2915 1.95328L31.3077 4.48364L17.2147 0C12.8535 1.37618 7.34491 5.41589 7.34491 9.4556C7.34491 9.89953 7.39082 10.3435 7.52854 10.8318C3.90198 12.8294 2.433 14.6939 2.433 17.0022C2.433 19.1775 3.62654 21.3528 7.43672 22.5514L10.4665 23.5281L0 33.2499L2.01985 35.3364L5.27916 32.451L21.4839 38Z" fill="#02050A"/>
</svg>
