<svg width="41" height="32" viewBox="0 0 41 32" fill="none" xmlns="http://www.w3.org/2000/svg">
<g clip-path="url(#clip0_3309_5567)">
<path d="M35.915 4.99072H18.8815C16.1583 4.99072 13.2526 7.07935 12.3914 9.6558L6.50691 27.2615C5.64576 29.838 7.15525 31.9266 9.87844 31.9266H26.912C29.6352 31.9266 32.5409 29.838 33.402 27.2615L39.2865 9.6558C40.1477 7.07935 38.6382 4.99072 35.915 4.99072Z" fill="#0558EE"/>
<path d="M30.9673 0H13.9337C11.2105 0 8.30483 2.08863 7.44368 4.66508L1.55916 22.2708C0.698006 24.8472 2.20749 26.9359 4.93069 26.9359H21.9642C24.6874 26.9359 27.5931 24.8472 28.4543 22.2708L34.3388 4.66508C35.1999 2.08863 33.6905 0 30.9673 0Z" fill="#21E8E6" fill-opacity="0.74"/>
</g>
<defs>
<clipPath id="clip0_3309_5567">
<rect width="41" height="32" fill="white"/>
</clipPath>
</defs>
</svg>
