<svg width="42" height="52" viewBox="0 0 42 52" fill="none" xmlns="http://www.w3.org/2000/svg">
<path d="M18.4146 44.8507L17.9471 46.1486L17.5215 44.8507H17.2773L16.8656 46.1486L16.4121 44.8507H16.119L16.754 46.644H16.9842L17.3959 45.3531L17.8215 46.644H18.0518L18.6868 44.8507H18.4007H18.4077H18.4146Z" fill="#2A51D0"/>
<path d="M20.3338 44.8515V45.0887C20.2849 45.0399 20.2291 44.998 20.1663 44.9631C20.0407 44.8864 19.8872 44.8445 19.7337 44.8515C19.6151 44.8515 19.4895 44.8654 19.3848 44.9143C19.2732 44.9562 19.1685 45.0259 19.0917 45.1166C19.008 45.2004 18.9382 45.312 18.8964 45.4237C18.8545 45.5353 18.8336 45.6609 18.8406 45.7795C18.8406 46.0516 18.9243 46.2749 19.1057 46.4284C19.2801 46.5889 19.5034 46.6726 19.7407 46.6726C19.8453 46.6726 19.9639 46.6587 20.0616 46.6168C20.1593 46.575 20.257 46.5191 20.3338 46.4354V46.6587H20.6059V44.8654H20.3268L20.3338 44.8515ZM19.7407 46.3935C19.6569 46.3935 19.5662 46.3796 19.4895 46.3517C19.4197 46.3238 19.3429 46.2819 19.2941 46.2261C19.2104 46.1423 19.1476 46.0307 19.1266 45.9121C19.1197 45.8702 19.1127 45.8284 19.1127 45.7865C19.1127 45.7028 19.1197 45.6051 19.1545 45.5283C19.1825 45.4446 19.2313 45.3678 19.3011 45.305C19.3569 45.2492 19.4267 45.2004 19.5104 45.1725C19.5941 45.1446 19.6709 45.1236 19.7546 45.1306C19.8383 45.1306 19.9221 45.1446 19.9988 45.1794C20.0686 45.2073 20.1314 45.2562 20.1872 45.312C20.2989 45.4376 20.3617 45.612 20.3547 45.7865C20.3547 45.8702 20.3477 45.9539 20.3198 46.0307C20.2919 46.1075 20.25 46.1842 20.1942 46.247C20.1384 46.3028 20.0756 46.3447 19.9988 46.3726C19.9221 46.4005 19.8453 46.4145 19.7686 46.4145L19.7476 46.4005L19.7407 46.3935Z" fill="#2A51D0"/>
<path d="M22.2874 44H22.0153V46.6375H22.2874V44Z" fill="#2A51D0"/>
<path d="M21.4286 44H21.1565V46.6375H21.4286V44Z" fill="#2A51D0"/>
<path d="M14.2776 45.2072H7V45.5142H14.2776V45.2072Z" fill="#2A51D0"/>
<path d="M35 45.2072H27.4154V45.5142H35V45.2072Z" fill="#2A51D0"/>
<path d="M23.6204 46.6658C23.439 46.6658 23.2715 46.6239 23.125 46.5193C22.9785 46.4216 22.8668 46.282 22.804 46.1215C22.7273 45.8843 22.7273 45.6331 22.804 45.3959C22.8459 45.2912 22.9017 45.1865 22.9854 45.1028C23.0622 45.0191 23.1599 44.9493 23.2576 44.9074C23.3622 44.8656 23.4739 44.8446 23.5855 44.8446C23.6413 44.8446 23.6972 44.8446 23.76 44.8586C23.8158 44.8656 23.8646 44.8865 23.9204 44.9074C24.0181 44.9493 24.1088 45.0121 24.1786 45.0958C24.3321 45.2493 24.4089 45.4517 24.4089 45.7099C24.4089 45.7447 24.4089 45.7796 24.3949 45.8145L24.374 45.8564H23.0203C23.0343 45.989 23.0971 46.1215 23.1948 46.2192C23.2436 46.275 23.3064 46.3169 23.3832 46.3448C23.4599 46.3727 23.5367 46.3867 23.6064 46.3867C23.7041 46.3867 23.8018 46.3727 23.8855 46.3309C23.9693 46.289 24.053 46.2262 24.1088 46.1494L24.1577 46.0936L24.36 46.275L24.3182 46.3309C24.2414 46.4355 24.1298 46.5262 24.0111 46.589C23.8925 46.6448 23.753 46.6728 23.6204 46.6728L23.6413 46.6518L23.6204 46.6658ZM23.0413 45.5912H24.1367C24.1228 45.4656 24.067 45.347 23.9763 45.2563C23.9274 45.2075 23.8716 45.1726 23.8018 45.1447C23.739 45.1168 23.6692 45.1098 23.5995 45.1098C23.5297 45.1098 23.4529 45.1237 23.3832 45.1516C23.3204 45.1796 23.2576 45.2144 23.2017 45.2703C23.111 45.354 23.0413 45.4726 23.0203 45.5982H23.0273L23.0413 45.5912Z" fill="#2A51D0"/>
<path d="M25.3514 46.6512C25.1351 46.6512 25.0374 46.5745 24.9886 46.5047C24.9258 46.414 24.8909 46.2884 24.8909 46.1209V45.1092H24.6606V44.844H24.8909V44.2649L25.1561 44.237V44.844H25.798V45.1092H25.1561V46.0651C25.1561 46.1489 25.163 46.2465 25.1979 46.3233C25.2049 46.3372 25.2328 46.3791 25.3514 46.3791C25.4561 46.3791 25.5608 46.3512 25.6445 46.2884L25.7282 46.2326L25.805 46.4977L25.7491 46.5256C25.6305 46.5954 25.491 46.6303 25.3584 46.6303V46.6443L25.3514 46.6512Z" fill="#2A51D0"/>
<path d="M9.50664 41.9142V38.8465L7.19043 35.1433H7.97616L9.82776 38.1632L11.6725 35.1979V35.0954L11.7614 35.1433H12.4856L10.1489 38.9011L10.1626 41.9142H9.50664Z" fill="#2A51D0"/>
<path d="M12.302 35.2465L10.0609 38.8472V41.8125H9.61V38.8472L7.37579 35.2465H7.91555L7.93605 35.2806L9.82864 38.3621L11.7622 35.2533L12.302 35.2465ZM12.6709 35.0415H11.5573V35.1918L9.82864 37.9726L8.10686 35.1713L8.08636 35.1372L8.02487 35.0347H7L7.19131 35.349L9.39136 38.9019V42.0106H10.2523V38.9019L12.4591 35.349L12.6573 35.0347L12.6709 35.0415Z" fill="#2A51D0"/>
<path d="M16.2244 41.9689C15.2747 41.9689 14.489 41.6342 13.8741 40.9714C13.2728 40.3086 12.9653 39.4887 12.9653 38.5322C12.9653 37.5757 13.2728 36.7489 13.8741 36.0998C14.4616 35.4576 15.2952 35.1023 16.2244 35.1023C17.1536 35.1023 17.9257 35.4234 18.5338 36.0657L18.5611 36.093C19.1624 36.7353 19.463 37.5552 19.463 38.5322C19.463 39.5092 19.1487 40.3633 18.5338 40.9987C17.8984 41.6615 17.1605 41.9689 16.2244 41.9689ZM16.2381 35.7719C15.4797 35.7719 14.8511 36.0383 14.366 36.5576C13.8809 37.0837 13.6349 37.7465 13.6349 38.5254C13.6349 39.3043 13.8809 39.967 14.366 40.5068C14.8443 41.0261 15.4933 41.2994 16.2313 41.2994C16.9692 41.2994 17.5636 41.0397 18.0555 40.5341C18.5475 40.0217 18.8003 39.3453 18.8003 38.5322C18.8003 37.7191 18.5475 37.0496 18.0555 36.5303C17.5636 36.011 16.9828 35.7719 16.2381 35.7719Z" fill="#2A51D0"/>
<path d="M16.2236 35.205C17.105 35.205 17.8634 35.5124 18.4579 36.1342C19.0591 36.7628 19.3597 37.5553 19.3597 38.5324C19.3597 39.5094 19.0591 40.3088 18.4579 40.9306C17.8566 41.5524 17.146 41.8666 16.2236 41.8666C15.3013 41.8666 14.536 41.5387 13.9484 40.9033C13.3677 40.2678 13.067 39.4753 13.067 38.5324C13.067 37.5895 13.3608 36.8038 13.9484 36.1684C14.536 35.5261 15.3422 35.205 16.2236 35.205ZM16.2305 41.402C16.982 41.402 17.6175 41.1356 18.1299 40.6026C18.6423 40.0697 18.902 39.3728 18.902 38.5324C18.902 37.6852 18.6423 36.9951 18.1299 36.4622C17.6243 35.9292 17.0299 35.6696 16.2373 35.6696C15.4447 35.6696 14.7956 35.9429 14.29 36.4895C13.7844 37.0361 13.5316 37.7193 13.5316 38.5256C13.5316 39.3318 13.7844 40.015 14.29 40.5753C14.7956 41.1219 15.4789 41.402 16.2305 41.402ZM16.2236 35C15.2671 35 14.4062 35.369 13.7981 36.0317C13.1764 36.7013 12.8621 37.5417 12.8621 38.5324C12.8621 39.5231 13.1764 40.3635 13.7981 41.0399C14.4335 41.7232 15.2466 42.0716 16.2236 42.0716C17.2007 42.0716 17.9522 41.7437 18.6082 41.0741C19.2436 40.4182 19.5647 39.5641 19.5647 38.5324C19.5647 37.5007 19.2641 36.7081 18.6628 36.059L18.6082 35.9907C17.9796 35.3348 17.1802 35 16.2236 35ZM16.2305 41.1971C15.5199 41.1971 14.8981 40.9306 14.4404 40.4387C13.9689 39.9126 13.7366 39.2908 13.7366 38.5256C13.7366 37.7603 13.9758 37.1317 14.4404 36.6261C14.9118 36.1205 15.4994 35.8746 16.2373 35.8746C16.9752 35.8746 17.5013 36.1 17.9796 36.6056C18.4579 37.0976 18.697 37.7467 18.697 38.5256C18.697 39.3045 18.4579 39.9672 17.9796 40.4592C17.5081 40.9511 16.9205 41.1971 16.2305 41.1971Z" fill="#2A51D0"/>
<path d="M24.656 41.9221L22.7771 39.2232H21.4926V41.9221H20.8298V35.1443H23.0845C23.7951 35.1443 24.3349 35.3356 24.6902 35.7045C25.0591 36.0803 25.2299 36.5449 25.2299 37.1667C25.2299 37.7884 25.0455 38.3009 24.6833 38.6493C24.3827 38.9363 24.0069 39.1139 23.556 39.1891L25.4622 41.9221H24.6492H24.656ZM22.9547 38.5673C24.0479 38.5673 24.5604 38.1232 24.5604 37.1667C24.5604 36.6952 24.4374 36.3673 24.1914 36.1486C23.9318 35.9232 23.5628 35.8138 23.1119 35.8138H21.4926V38.5673H22.9547Z" fill="#2A51D0"/>
<path d="M23.0838 35.2459C23.7602 35.2459 24.2794 35.4236 24.6142 35.772C24.9559 36.1205 25.1267 36.5578 25.1267 37.1659C25.1267 37.7739 24.9559 38.2454 24.6142 38.5733C24.2931 38.8808 23.8763 39.0585 23.3776 39.1063L25.2702 41.8188H24.7099L22.831 39.1199H21.3893V41.8188H20.9315V35.2459H23.0838ZM21.3893 38.669H22.9539C24.1018 38.669 24.6621 38.1771 24.6621 37.1659C24.6621 36.6739 24.5322 36.3118 24.2589 36.0727C23.9788 35.8335 23.5962 35.7105 23.1111 35.7105H21.3893V38.669ZM23.0838 35.041H20.7266V42.0238H21.5943V39.3249H22.7216L24.5391 41.9349L24.6006 42.0238H25.6596L25.4341 41.7026L23.726 39.2566C24.1291 39.1678 24.4708 38.9901 24.7509 38.7237C25.1335 38.3547 25.3248 37.8354 25.3248 37.1659C25.3248 36.4963 25.1403 36.0248 24.7509 35.6285C24.3751 35.2391 23.8148 35.041 23.0769 35.041H23.0838ZM21.5943 35.9155H23.1111C23.5415 35.9155 23.8832 36.018 24.1291 36.2298C24.3546 36.4211 24.4571 36.7286 24.4571 37.159C24.4571 38.0609 23.9925 38.464 22.9539 38.464H21.5943V35.9155Z" fill="#2A51D0"/>
<path d="M29.5872 41.9689C28.6375 41.9689 27.8449 41.6342 27.2368 40.9714C26.6356 40.3155 26.3281 39.4887 26.3281 38.5322C26.3281 37.5757 26.6356 36.7489 27.2368 36.0998C27.8313 35.4508 28.6443 35.1023 29.5872 35.1023C30.5301 35.1023 31.2953 35.4234 31.9034 36.0657L31.9307 36.093C32.5252 36.7353 32.8258 37.5552 32.8258 38.5322C32.8258 39.5092 32.5115 40.3701 31.9034 40.9987C31.2612 41.6615 30.5233 41.9689 29.5872 41.9689ZM29.594 35.7719C28.8425 35.7719 28.2207 36.0383 27.7288 36.5576C27.2437 37.0769 26.9977 37.7396 26.9977 38.5254C26.9977 39.3111 27.2437 39.9739 27.7288 40.5068C28.2071 41.0261 28.8561 41.2994 29.594 41.2994C30.332 41.2994 30.9264 41.0397 31.4183 40.5341C31.9102 40.0217 32.1631 39.3453 32.1631 38.5322V38.4912C32.1562 37.6986 31.9034 37.0427 31.4115 36.5371C30.9127 36.0178 30.332 35.7787 29.5872 35.7787L29.594 35.7719Z" fill="#2A51D0"/>
<path d="M29.5886 35.205C30.4768 35.205 31.2352 35.5124 31.8297 36.1342C32.4241 36.7628 32.7247 37.5553 32.7247 38.5324C32.7247 39.5094 32.4309 40.3088 31.8297 40.9306C31.2216 41.5524 30.511 41.8666 29.5886 41.8666C28.6662 41.8666 27.901 41.5387 27.3134 40.9033C26.7327 40.2678 26.432 39.4753 26.432 38.5324C26.432 37.5895 26.7258 36.8038 27.3134 36.1684C27.901 35.5261 28.7004 35.205 29.5886 35.205ZM29.5955 41.402C30.347 41.402 30.9824 41.1356 31.4949 40.6026C32.0073 40.0697 32.267 39.3728 32.267 38.5324C32.267 37.6852 32.0005 36.9951 31.4881 36.4622C30.9756 35.9292 30.3744 35.6696 29.5886 35.6696C28.8029 35.6696 28.1538 35.9497 27.6482 36.4895C27.1426 37.0292 26.8898 37.7193 26.8898 38.5256C26.8898 39.3318 27.1426 40.0219 27.6482 40.5753C28.1538 41.1219 28.8371 41.402 29.5886 41.402M29.5886 35C28.6184 35 27.778 35.3553 27.1631 36.0317C26.5413 36.7013 26.2271 37.5417 26.2271 38.5324C26.2271 39.5231 26.5413 40.3635 27.1631 41.0399C27.7985 41.7232 28.6116 42.0716 29.5886 42.0716C30.5657 42.0716 31.3104 41.7573 31.9732 41.0741C32.6086 40.4182 32.9297 39.5641 32.9297 38.5324C32.9297 37.5007 32.6291 36.715 32.0346 36.059L31.98 35.9907C31.3514 35.3348 30.5452 35 29.5886 35ZM29.5955 41.1971C28.8849 41.1971 28.2631 40.9306 27.8054 40.4387C27.3407 39.9262 27.1016 39.284 27.1016 38.5256C27.1016 37.7672 27.3407 37.1249 27.8054 36.633C28.2768 36.1342 28.878 35.8746 29.5955 35.8746C30.3129 35.8746 30.8663 36.1069 31.3446 36.6056C31.8092 37.0907 32.0483 37.7057 32.0688 38.4504V38.5324C32.0688 39.3181 31.8228 39.9672 31.3446 40.4592C30.8731 40.9511 30.2855 41.1971 29.5955 41.1971Z" fill="#2A51D0"/>
<path d="M34.2429 41.9217V35.1507H34.8988V41.826H34.7964V41.9217H34.2429Z" fill="#2A51D0"/>
<path d="M34.7956 35.2523V41.8184H34.3446V35.2523H34.7956ZM35.0005 35.0474H34.1396V42.0233H35.0005V41.8252V35.0474Z" fill="#2A51D0"/>
<path d="M28.585 24.9978L26.371 26.5361L10.0659 15.268C10.0668 15.2456 10.0648 15.2231 10.0598 15.2012V12.1973L28.585 24.9978ZM24.0354 10.4572C23.0512 11.1316 22.0571 11.7939 21.0729 12.4671C21.0235 12.5135 20.9583 12.5393 20.8906 12.5393C20.8229 12.5393 20.7577 12.5135 20.7083 12.4671C19.4931 11.6165 18.2683 10.7816 17.0507 9.94075C15.7682 9.04964 14.4875 8.15852 13.2083 7.26741L11.3977 6H7C7.23331 6.16283 7.42531 6.30136 7.61852 6.43503L11.0647 8.82402L14.4733 11.1948C15.5414 11.9385 16.6083 12.6834 17.6777 13.427C18.6936 14.1318 19.7119 14.8281 20.7278 15.5341C20.7688 15.571 20.822 15.5914 20.8772 15.5914C20.9324 15.5914 20.9856 15.571 21.0267 15.5341C21.8469 14.9715 22.6757 14.4198 23.491 13.8584C25.5212 12.4675 27.5501 11.0737 29.5778 9.67706L34.0083 6.64889C34.3145 6.43989 34.6159 6.22723 34.9391 6H30.5281C28.3627 7.48492 26.1984 8.97065 24.0354 10.4572ZM10.0829 19.6924C10.0732 19.711 10.0655 19.7305 10.0598 19.7507V22.7011C10.0607 22.7238 10.0661 22.7461 10.0756 22.7667L20.9586 30.2898H20.9744L23.1885 28.7538L10.0829 19.6924ZM31.8247 12.2034L23.7256 17.804C23.751 17.8385 23.7794 17.8707 23.8106 17.9C24.496 18.3861 25.1813 18.8689 25.8667 19.3485C25.8894 19.3607 25.9153 19.3654 25.9408 19.3619L31.8052 15.302C31.8133 15.2844 31.8198 15.2661 31.8247 15.2473V12.2034ZM31.8307 19.8078C30.9109 20.4421 30.0238 21.0558 29.1258 21.6767L31.2305 23.1689L31.8307 22.7521V19.8078Z" fill="#4B6DDE"/>
</svg>
