<svg width="182" height="24" viewBox="0 0 182 24" fill="none" xmlns="http://www.w3.org/2000/svg">
<path d="M21.6705 5.9205C22.1098 5.48116 22.1098 4.76884 21.6705 4.3295C21.2312 3.89017 20.5188 3.89017 20.0795 4.3295L13 11.409L5.9205 4.3295C5.48116 3.89017 4.76884 3.89017 4.3295 4.3295C3.89017 4.76884 3.89017 5.48116 4.3295 5.9205L11.409 13L4.3295 20.0795C3.89017 20.5188 3.89017 21.2312 4.3295 21.6705C4.76884 22.1098 5.48116 22.1098 5.9205 21.6705L13 14.591L20.0795 21.6705C20.5188 22.1098 21.2312 22.1098 21.6705 21.6705C22.1098 21.2312 22.1098 20.5188 21.6705 20.0795L14.591 13L21.6705 5.9205Z" fill="#0A2EBF"/>
</svg>
